<svg width="234" height="59" viewBox="0 0 234 59" fill="none" xmlns="http://www.w3.org/2000/svg">
<path fill-rule="evenodd" clip-rule="evenodd" d="M202.261 58.9839C192.553 58.9839 184.883 56.3745 179.252 51.1557C173.65 45.9108 170.849 38.6827 170.849 29.4714C170.849 20.208 173.665 12.9799 179.296 7.78716C184.927 2.59442 192.597 -0.00195312 202.305 -0.00195312H233.673V29.5106C233.673 38.6696 230.857 45.8716 225.226 51.1165C219.595 56.3615 211.94 58.9839 202.261 58.9839ZM202.305 50.3337C196.058 50.3337 191.336 48.5202 188.139 44.8931C184.942 41.266 183.343 36.1646 183.343 29.5889C183.343 22.9348 184.942 17.7682 188.139 14.0889C191.365 10.3835 196.102 8.53084 202.349 8.53084C208.567 8.53084 213.259 10.3705 216.427 14.0498C219.624 17.729 221.222 22.9087 221.222 29.5889C221.222 36.1907 219.624 41.3051 216.427 44.9322C213.259 48.5332 208.552 50.3337 202.305 50.3337Z" fill="#D60D0C"/>
<path d="M138.318 58.1618V35.4207L116.013 0.819824H128.947L144.301 25.6354L159.743 0.819824H172.502L161.393 18.0224L150.285 35.4207V58.1618H138.318Z" fill="#090909"/>
<path d="M72.2181 44.8931C75.415 48.5202 80.1371 50.3337 86.3842 50.3337C92.6314 50.3337 97.3388 48.5332 100.506 44.9322C103.703 41.3051 105.302 36.1907 105.302 29.5889C105.302 22.9087 103.703 17.729 100.506 14.0498C97.3388 10.3705 92.6461 8.53084 86.4282 8.53084C80.1811 8.53084 75.4444 10.3835 72.2181 14.0889C69.0212 17.7682 67.4228 22.9348 67.4228 29.5889C67.4228 36.1646 69.0212 41.266 72.2181 44.8931ZM86.3402 58.9839C76.6322 58.9839 68.9626 56.3745 63.3313 51.1557C57.7294 45.9108 54.9284 38.6827 54.9284 29.4714C54.9284 20.208 57.7441 12.9799 63.3753 7.78716C69.0066 2.59442 76.6762 -0.00195312 86.3842 -0.00195312C96.0923 -0.00195312 103.747 2.60746 109.349 7.8263C114.951 13.019 117.752 20.2471 117.752 29.5106C117.752 38.6696 114.936 45.8716 109.305 51.1165C103.674 56.3615 96.0189 58.9839 86.3402 58.9839Z" fill="#090909"/>
<path d="M22.5277 58.162V35.4209L0.222656 0.820007H13.1569L28.5109 25.6356L43.9528 0.820007H56.7111L34.4941 35.4209V58.162H22.5277Z" fill="#090909"/>
</svg>
