<svg width="615" height="59" viewBox="0 0 615 59" fill="none" xmlns="http://www.w3.org/2000/svg">
<path d="M611.164 42.8271V32.2324C611.164 31.2428 611.139 30.4141 611.09 29.7461C611.053 29.0781 610.954 28.3978 610.793 27.7051C610.645 27.0124 610.428 26.4681 610.144 26.0723C609.871 25.6641 609.488 25.3363 608.993 25.0889C608.498 24.8291 607.905 24.6992 607.212 24.6992C605.851 24.6992 604.688 25.0641 603.724 25.7939C602.771 26.5238 602.091 27.5505 601.683 28.874C601.571 29.7646 601.516 30.7171 601.516 31.7314V42.8271H598.417V31.8984C598.417 30.9831 598.386 30.1914 598.324 29.5234C598.262 28.8431 598.145 28.1875 597.972 27.5566C597.799 26.9134 597.563 26.3939 597.267 25.998C596.982 25.6022 596.599 25.2868 596.116 25.0518C595.634 24.8167 595.059 24.6992 594.391 24.6992C592.906 24.6992 591.657 25.0765 590.643 25.8311C589.641 26.5856 588.966 27.5876 588.62 28.8369C588.509 29.7894 588.453 30.8223 588.453 31.9355V42.8271H585.354C585.33 30.0986 585.317 23.3138 585.317 22.4727H587.915L588.305 25.3857C588.923 24.4456 589.801 23.654 590.939 23.0107C592.077 22.3675 593.37 22.0459 594.817 22.0459C595.572 22.0459 596.265 22.1263 596.896 22.2871C597.539 22.4355 598.071 22.6273 598.491 22.8623C598.924 23.0973 599.308 23.3818 599.642 23.7158C599.976 24.0374 600.235 24.359 600.421 24.6807C600.606 24.9899 600.761 25.3177 600.885 25.6641C602.369 23.252 604.639 22.0459 607.694 22.0459C609.958 22.0459 611.616 22.6953 612.667 23.9941C613.731 25.2806 614.263 27.1917 614.263 29.7275V42.8271H611.164Z" fill="#090909"/>
<path d="M580.225 22.2871C580.781 22.2871 581.288 22.3242 581.746 22.3984L581.635 25.2559C581.066 25.1569 580.571 25.1074 580.15 25.1074C578.419 25.1074 577.008 25.7135 575.92 26.9258C574.844 28.1257 574.306 29.6162 574.306 31.3975V42.8271H571.207C571.195 30.3337 571.188 23.5488 571.188 22.4727H573.768L574.064 26.1279C574.77 24.9775 575.666 24.0498 576.755 23.3447C577.843 22.6396 579 22.2871 580.225 22.2871Z" fill="#090909"/>
<path d="M550.677 32.6963C550.677 35.1084 551.209 37.0443 552.272 38.5039C553.349 39.9512 554.913 40.6748 556.967 40.6748C558.995 40.6748 560.523 39.9512 561.55 38.5039C562.589 37.0566 563.108 35.1084 563.108 32.6592C563.108 30.1729 562.595 28.2184 561.568 26.7959C560.554 25.361 559.002 24.6436 556.911 24.6436C554.882 24.6436 553.336 25.3734 552.272 26.833C551.209 28.2926 550.677 30.2471 550.677 32.6963ZM566.318 32.6406C566.318 35.7949 565.477 38.3555 563.795 40.3223C562.113 42.2767 559.787 43.2539 556.818 43.2539C553.961 43.2539 551.685 42.2643 549.99 40.2852C548.308 38.306 547.467 35.764 547.467 32.6592C547.467 29.4925 548.314 26.932 550.009 24.9775C551.703 23.0231 554.029 22.0459 556.985 22.0459C559.892 22.0459 562.174 23.0293 563.832 24.9961C565.49 26.9505 566.318 29.4987 566.318 32.6406Z" fill="#090909"/>
<path d="M543.524 16.5537C542.238 16.5537 541.354 16.9248 540.871 17.667C540.401 18.4092 540.166 19.6956 540.166 21.5264V22.4727H545.064V24.7734H540.166V42.8271H537.067V24.7734H533.765L534.024 22.7324L537.067 22.4727V21.5635C537.092 18.9411 537.581 17.0423 538.533 15.8672C539.498 14.6797 541.05 14.0859 543.19 14.0859C544.019 14.0859 545.034 14.1787 546.233 14.3643L546.029 16.7949C544.928 16.6341 544.093 16.5537 543.524 16.5537Z" fill="#090909"/>
<path d="M528.727 43.1982C526.723 43.1982 525.3 42.7096 524.459 41.7324C523.618 40.7552 523.173 39.1781 523.123 37.001V24.7734H520.099L520.229 22.7324L523.104 22.4727L524.162 17.8154L526.203 17.7412V22.4727H531.862V24.7734H526.203V36.4443C526.203 37.9906 526.438 39.0791 526.908 39.71C527.378 40.3408 528.182 40.6562 529.32 40.6562C529.729 40.6562 530.613 40.5573 531.974 40.3594L532.104 42.8086C530.632 43.0684 529.506 43.1982 528.727 43.1982Z" fill="#090909"/>
<path d="M507.361 40.749C508.833 40.749 510.126 40.347 511.239 39.543C512.365 38.7266 513.089 37.6318 513.41 36.2588V32.8262C513.348 32.8262 512.971 32.8571 512.278 32.9189C511.598 32.9808 511.153 33.0179 510.942 33.0303C508.258 33.2653 506.384 33.7044 505.32 34.3477C504.269 34.9909 503.743 36.0238 503.743 37.4463C503.743 38.5348 504.065 39.3574 504.708 39.9141C505.351 40.4707 506.236 40.749 507.361 40.749ZM514.097 42.8271C513.911 42.0355 513.732 41.182 513.559 40.2666C512.433 41.3923 511.375 42.1715 510.386 42.6045C509.396 43.0374 508.233 43.2539 506.897 43.2539C504.993 43.2539 503.459 42.7591 502.296 41.7695C501.146 40.7676 500.57 39.3327 500.57 37.4648C500.57 35.3867 501.356 33.8467 502.927 32.8447C504.51 31.8428 506.786 31.2181 509.755 30.9707C510.163 30.9336 510.775 30.8841 511.592 30.8223C512.421 30.748 513.039 30.6924 513.447 30.6553V28.8555C513.447 27.4206 513.113 26.3568 512.445 25.6641C511.777 24.9714 510.726 24.625 509.291 24.625C507.287 24.625 505.265 25.1198 503.224 26.1094C503.162 25.9609 503.001 25.5342 502.741 24.8291C502.481 24.1117 502.345 23.7406 502.333 23.7158C503.236 23.2087 504.306 22.8066 505.543 22.5098C506.792 22.2005 508.06 22.0459 509.347 22.0459C511.882 22.0459 513.707 22.6025 514.82 23.7158C515.946 24.8167 516.509 26.6969 516.509 29.3564V42.8271H514.097Z" fill="#090909"/>
<path d="M495.997 43.1982C494.018 43.1982 492.614 42.6663 491.785 41.6025C490.969 40.5387 490.561 38.6895 490.561 36.0547V14.5684L493.641 14.3828V34.8301C493.641 35.6712 493.647 36.3454 493.659 36.8525C493.684 37.3597 493.733 37.8607 493.808 38.3555C493.882 38.8379 493.981 39.2028 494.104 39.4502C494.228 39.6976 494.408 39.9264 494.643 40.1367C494.878 40.3346 495.156 40.4707 495.478 40.5449C495.812 40.6068 496.22 40.6377 496.702 40.6377C497.098 40.6377 497.877 40.5635 499.04 40.415L499.207 42.8828C497.933 43.0931 496.863 43.1982 495.997 43.1982Z" fill="#090909"/>
<path d="M467.841 51.6592V22.4727H470.568L470.865 25.2373C472.646 23.1097 474.786 22.0459 477.285 22.0459C479.141 22.0459 480.712 22.5098 481.998 23.4375C483.285 24.3652 484.231 25.6208 484.837 27.2041C485.455 28.7874 485.765 30.6367 485.765 32.752C485.765 34.7806 485.431 36.5866 484.763 38.1699C484.095 39.7409 483.111 40.984 481.812 41.8994C480.526 42.8024 479.017 43.2539 477.285 43.2539C475.974 43.2539 474.743 42.9632 473.593 42.3818C472.442 41.7881 471.521 41.0088 470.828 40.0439C470.902 41.3799 470.939 42.6787 470.939 43.9404V51.4551L467.841 51.6592ZM476.858 40.6377C477.799 40.6377 478.64 40.4274 479.382 40.0068C480.124 39.5739 480.724 38.9863 481.182 38.2441C481.639 37.502 481.986 36.6608 482.221 35.7207C482.456 34.7682 482.573 33.7415 482.573 32.6406C482.573 30.3151 482.085 28.4102 481.107 26.9258C480.13 25.429 478.701 24.6807 476.821 24.6807C472.888 24.6807 470.921 27.2227 470.921 32.3066C470.921 35.0651 471.379 37.1432 472.294 38.541C473.222 39.9388 474.743 40.6377 476.858 40.6377Z" fill="#090909"/>
<path d="M436.021 22.4727H439.305L445.725 39.4131L451.439 22.4727H454.724C449.231 37.5885 446.393 45.3815 446.207 45.8516C445.354 47.9915 444.321 49.5563 443.108 50.5459C441.896 51.5479 440.3 52.0488 438.321 52.0488C437.728 52.0488 437.103 51.9993 436.447 51.9004L436.262 49.2656C436.954 49.3151 437.474 49.3398 437.82 49.3398C439.218 49.3398 440.276 49.0801 440.993 48.5605C441.723 48.0534 442.372 47.0947 442.941 45.6846C443.449 44.3857 443.826 43.3838 444.073 42.6787L436.021 22.4727Z" fill="#090909"/>
<path d="M431.559 43.1982C429.555 43.1982 428.132 42.7096 427.291 41.7324C426.45 40.7552 426.005 39.1781 425.955 37.001V24.7734H422.931L423.061 22.7324L425.937 22.4727L426.994 17.8154L429.035 17.7412V22.4727H434.694V24.7734H429.035V36.4443C429.035 37.9906 429.27 39.0791 429.74 39.71C430.21 40.3408 431.014 40.6562 432.152 40.6562C432.561 40.6562 433.445 40.5573 434.806 40.3594L434.936 42.8086C433.464 43.0684 432.338 43.1982 431.559 43.1982Z" fill="#090909"/>
<path d="M418.84 22.4727V42.8271H415.723V22.4727H418.84ZM418.84 15.0693V18.7432H415.723V15.0693H418.84Z" fill="#090909"/>
<path d="M409.701 43.1982C407.722 43.1982 406.318 42.6663 405.489 41.6025C404.673 40.5387 404.265 38.6895 404.265 36.0547V14.5684L407.345 14.3828V34.8301C407.345 35.6712 407.351 36.3454 407.363 36.8525C407.388 37.3597 407.438 37.8607 407.512 38.3555C407.586 38.8379 407.685 39.2028 407.809 39.4502C407.932 39.6976 408.112 39.9264 408.347 40.1367C408.582 40.3346 408.86 40.4707 409.182 40.5449C409.516 40.6068 409.924 40.6377 410.406 40.6377C410.802 40.6377 411.581 40.5635 412.744 40.415L412.911 42.8828C411.637 43.0931 410.567 43.1982 409.701 43.1982Z" fill="#090909"/>
<path d="M398.003 22.4727V42.8271H394.886V22.4727H398.003ZM398.003 15.0693V18.7432H394.886V15.0693H398.003Z" fill="#090909"/>
<path d="M380.664 24.625C378.697 24.625 377.188 25.3053 376.137 26.666C375.098 28.0143 374.578 29.9997 374.578 32.6221C374.578 37.9906 376.601 40.6748 380.646 40.6748C381.647 40.6748 382.526 40.4707 383.28 40.0625C384.047 39.6419 384.647 39.0605 385.08 38.3184C385.525 37.5638 385.853 36.7165 386.063 35.7764C386.286 34.8363 386.397 33.791 386.397 32.6406C386.397 31.082 386.212 29.7214 385.841 28.5586C385.482 27.3958 384.864 26.4495 383.985 25.7197C383.107 24.9899 382 24.625 380.664 24.625ZM380.979 22.0459C382.785 22.0459 384.344 22.5036 385.655 23.4189C386.966 24.3343 387.95 25.5775 388.605 27.1484C389.261 28.7194 389.589 30.5192 389.589 32.5479C389.589 34.6507 389.261 36.5 388.605 38.0957C387.962 39.6914 386.979 40.9531 385.655 41.8809C384.344 42.7962 382.773 43.2539 380.942 43.2539C379.594 43.2539 378.363 42.9632 377.25 42.3818C376.137 41.8005 375.209 41.0088 374.467 40.0068L374.151 42.8271H371.498V14.5684L374.597 14.3828V21.1182C374.597 22.7757 374.572 24.1982 374.522 25.3857C375.24 24.359 376.168 23.5488 377.306 22.9551C378.456 22.349 379.681 22.0459 380.979 22.0459Z" fill="#090909"/>
<path d="M350.986 32.6963C350.986 35.1084 351.518 37.0443 352.582 38.5039C353.658 39.9512 355.223 40.6748 357.276 40.6748C359.305 40.6748 360.833 39.9512 361.859 38.5039C362.898 37.0566 363.418 35.1084 363.418 32.6592C363.418 30.1729 362.905 28.2184 361.878 26.7959C360.864 25.361 359.311 24.6436 357.221 24.6436C355.192 24.6436 353.646 25.3734 352.582 26.833C351.518 28.2926 350.986 30.2471 350.986 32.6963ZM366.628 32.6406C366.628 35.7949 365.787 38.3555 364.104 40.3223C362.422 42.2767 360.097 43.2539 357.128 43.2539C354.271 43.2539 351.994 42.2643 350.3 40.2852C348.618 38.306 347.776 35.764 347.776 32.6592C347.776 29.4925 348.624 26.932 350.318 24.9775C352.013 23.0231 354.339 22.0459 357.295 22.0459C360.202 22.0459 362.484 23.0293 364.142 24.9961C365.799 26.9505 366.628 29.4987 366.628 32.6406Z" fill="#090909"/>
<path d="M341.273 42.8271V32.2324C341.273 31.2428 341.249 30.4141 341.199 29.7461C341.162 29.0781 341.063 28.3978 340.902 27.7051C340.754 27.0124 340.537 26.4681 340.253 26.0723C339.981 25.6641 339.597 25.3363 339.103 25.0889C338.608 24.8291 338.014 24.6992 337.321 24.6992C335.961 24.6992 334.798 25.0641 333.833 25.7939C332.881 26.5238 332.2 27.5505 331.792 28.874C331.681 29.7646 331.625 30.7171 331.625 31.7314V42.8271H328.526V31.8984C328.526 30.9831 328.495 30.1914 328.434 29.5234C328.372 28.8431 328.254 28.1875 328.081 27.5566C327.908 26.9134 327.673 26.3939 327.376 25.998C327.091 25.6022 326.708 25.2868 326.226 25.0518C325.743 24.8167 325.168 24.6992 324.5 24.6992C323.016 24.6992 321.766 25.0765 320.752 25.8311C319.75 26.5856 319.076 27.5876 318.729 28.8369C318.618 29.7894 318.562 30.8223 318.562 31.9355V42.8271H315.464C315.439 30.0986 315.427 23.3138 315.427 22.4727H318.024L318.414 25.3857C319.033 24.4456 319.911 23.654 321.049 23.0107C322.187 22.3675 323.479 22.0459 324.927 22.0459C325.681 22.0459 326.374 22.1263 327.005 22.2871C327.648 22.4355 328.18 22.6273 328.601 22.8623C329.034 23.0973 329.417 23.3818 329.751 23.7158C330.085 24.0374 330.345 24.359 330.53 24.6807C330.716 24.9899 330.87 25.3177 330.994 25.6641C332.479 23.252 334.748 22.0459 337.804 22.0459C340.067 22.0459 341.725 22.6953 342.776 23.9941C343.84 25.2806 344.372 27.1917 344.372 29.7275V42.8271H341.273Z" fill="#090909"/>
<path fill-rule="evenodd" clip-rule="evenodd" d="M274.427 58.1689V0.00537109H277.427V58.1689H274.427Z" fill="#090909"/>
<path fill-rule="evenodd" clip-rule="evenodd" d="M203.015 58.9913C193.307 58.9913 185.637 56.3819 180.006 51.163C174.404 45.9181 171.603 38.69 171.603 29.4788C171.603 20.2153 174.419 12.9872 180.05 7.79449C185.681 2.60174 193.351 0.00537109 203.059 0.00537109H234.427V29.5179C234.427 38.677 231.611 45.8789 225.98 51.1239C220.348 56.3688 212.694 58.9913 203.015 58.9913ZM203.059 50.341C196.812 50.341 192.09 48.5275 188.893 44.9004C185.696 41.2733 184.097 36.1719 184.097 29.5962C184.097 22.9422 185.696 17.7755 188.893 14.0962C192.119 10.3909 196.856 8.53817 203.103 8.53817C209.321 8.53817 214.013 10.3778 217.181 14.0571C220.378 17.7364 221.976 22.9161 221.976 29.5962C221.976 36.198 220.378 41.3125 217.181 44.9396C214.013 48.5405 209.306 50.341 203.059 50.341Z" fill="#090909"/>
<path d="M139.072 58.1691V35.428L116.767 0.827148H129.701L145.055 25.6427L160.497 0.827148H173.256L162.147 18.0297L151.038 35.428V58.1691H139.072Z" fill="#090909"/>
<path d="M72.972 44.9004C76.1689 48.5275 80.891 50.341 87.1381 50.341C93.3853 50.341 98.0927 48.5405 101.26 44.9396C104.457 41.3125 106.056 36.198 106.056 29.5962C106.056 22.9161 104.457 17.7364 101.26 14.0571C98.0927 10.3778 93.4 8.53817 87.1821 8.53817C80.935 8.53817 76.1983 10.3909 72.972 14.0962C69.7751 17.7755 68.1767 22.9422 68.1767 29.5962C68.1767 36.1719 69.7751 41.2733 72.972 44.9004ZM87.0941 58.9913C77.3861 58.9913 69.7165 56.3819 64.0852 51.163C58.4833 45.9181 55.6823 38.69 55.6823 29.4788C55.6823 20.2153 58.498 12.9872 64.1292 7.79449C69.7605 2.60174 77.4301 0.00537109 87.1381 0.00537109C96.8462 0.00537109 104.501 2.61479 110.103 7.83363C115.705 13.0264 118.506 20.2545 118.506 29.5179C118.506 38.677 115.69 45.8789 110.059 51.1239C104.428 56.3688 96.7728 58.9913 87.0941 58.9913Z" fill="#090909"/>
<path d="M23.2816 58.1693V35.4282L0.976562 0.827332H13.9108L29.2648 25.6429L44.7067 0.827332H57.465L35.248 35.4282V58.1693H23.2816Z" fill="#090909"/>
</svg>
