<svg width="234" height="60" viewBox="0 0 234 60" fill="none" xmlns="http://www.w3.org/2000/svg">
<path fill-rule="evenodd" clip-rule="evenodd" d="M202.298 59.3199C192.59 59.3199 184.92 56.7105 179.289 51.4916C173.687 46.2467 170.886 39.0186 170.886 29.8074C170.886 20.5439 173.702 13.3158 179.333 8.1231C184.964 2.93036 192.634 0.333984 202.342 0.333984H233.71V29.8465C233.71 39.0056 230.894 46.2076 225.263 51.4525C219.632 56.6974 211.977 59.3199 202.298 59.3199ZM202.342 50.6697C196.095 50.6697 191.373 48.8561 188.176 45.229C184.979 41.6019 183.381 36.5005 183.381 29.9248C183.381 23.2708 184.979 18.1041 188.176 14.4248C191.402 10.7195 196.139 8.86678 202.386 8.86678C208.604 8.86678 213.297 10.7064 216.464 14.3857C219.661 18.065 221.259 23.2447 221.259 29.9248C221.259 36.5266 219.661 41.6411 216.464 45.2682C213.297 48.8692 208.589 50.6697 202.342 50.6697Z" fill="#090909"/>
<path d="M138.355 58.4977V35.7566L116.05 1.15576H128.985L144.339 25.9713L159.78 1.15576H172.539L161.43 18.3584L150.322 35.7566V58.4977H138.355Z" fill="#090909"/>
<path d="M72.2552 45.229C75.4521 48.8561 80.1742 50.6697 86.4213 50.6697C92.6685 50.6697 97.3759 48.8692 100.543 45.2682C103.74 41.6411 105.339 36.5266 105.339 29.9248C105.339 23.2447 103.74 18.065 100.543 14.3857C97.3759 10.7064 92.6832 8.86678 86.4653 8.86678C80.2182 8.86678 75.4815 10.7195 72.2552 14.4248C69.0583 18.1041 67.4599 23.2708 67.4599 29.9248C67.4599 36.5005 69.0583 41.6019 72.2552 45.229ZM86.3773 59.3199C76.6693 59.3199 68.9997 56.7105 63.3684 51.4916C57.7665 46.2467 54.9655 39.0186 54.9655 29.8074C54.9655 20.5439 57.7812 13.3158 63.4124 8.1231C69.0437 2.93036 76.7133 0.333984 86.4213 0.333984C96.1294 0.333984 103.784 2.9434 109.386 8.16224C114.988 13.355 117.789 20.5831 117.789 29.8465C117.789 39.0056 114.974 46.2076 109.342 51.4525C103.711 56.6974 96.056 59.3199 86.3773 59.3199Z" fill="#090909"/>
<path d="M22.5648 58.4979V35.7568L0.259766 1.15594H13.194L28.548 25.9715L43.9899 1.15594H56.7482L34.5312 35.7568V58.4979H22.5648Z" fill="#090909"/>
</svg>
