<svg width="317" height="125" viewBox="0 0 317 125" fill="none" xmlns="http://www.w3.org/2000/svg">
<path d="M313.651 115.732V105.138C313.651 104.148 313.627 103.319 313.577 102.651C313.54 101.983 313.441 101.303 313.28 100.61C313.132 99.9176 312.915 99.3734 312.631 98.9775C312.359 98.5693 311.975 98.2415 311.48 97.9941C310.986 97.7344 310.392 97.6045 309.699 97.6045C308.339 97.6045 307.176 97.9694 306.211 98.6992C305.258 99.429 304.578 100.456 304.17 101.779C304.059 102.67 304.003 103.622 304.003 104.637V115.732H300.904V104.804C300.904 103.888 300.873 103.097 300.812 102.429C300.75 101.748 300.632 101.093 300.459 100.462C300.286 99.8187 300.051 99.2992 299.754 98.9033C299.469 98.5075 299.086 98.1921 298.604 97.957C298.121 97.722 297.546 97.6045 296.878 97.6045C295.394 97.6045 294.144 97.9818 293.13 98.7363C292.128 99.4909 291.454 100.493 291.107 101.742C290.996 102.695 290.94 103.728 290.94 104.841V115.732H287.842C287.817 103.004 287.805 96.2191 287.805 95.3779H290.402L290.792 98.291C291.41 97.3509 292.289 96.5592 293.427 95.916C294.565 95.2728 295.857 94.9512 297.305 94.9512C298.059 94.9512 298.752 95.0316 299.383 95.1924C300.026 95.3408 300.558 95.5326 300.979 95.7676C301.411 96.0026 301.795 96.2871 302.129 96.6211C302.463 96.9427 302.723 97.2643 302.908 97.5859C303.094 97.8952 303.248 98.223 303.372 98.5693C304.856 96.1572 307.126 94.9512 310.182 94.9512C312.445 94.9512 314.103 95.6006 315.154 96.8994C316.218 98.1859 316.75 100.097 316.75 102.633V115.732H313.651Z" fill="#090909"/>
<path d="M282.712 95.1924C283.269 95.1924 283.776 95.2295 284.233 95.3037L284.122 98.1611C283.553 98.0622 283.058 98.0127 282.638 98.0127C280.906 98.0127 279.496 98.6188 278.407 99.8311C277.331 101.031 276.793 102.521 276.793 104.303V115.732H273.694C273.682 103.239 273.676 96.4541 273.676 95.3779H276.255L276.552 99.0332C277.257 97.8828 278.154 96.9551 279.242 96.25C280.331 95.5449 281.487 95.1924 282.712 95.1924Z" fill="#090909"/>
<path d="M253.164 105.602C253.164 108.014 253.696 109.95 254.76 111.409C255.836 112.856 257.401 113.58 259.454 113.58C261.483 113.58 263.01 112.856 264.037 111.409C265.076 109.962 265.596 108.014 265.596 105.564C265.596 103.078 265.082 101.124 264.056 99.7012C263.041 98.2663 261.489 97.5488 259.398 97.5488C257.37 97.5488 255.824 98.2786 254.76 99.7383C253.696 101.198 253.164 103.152 253.164 105.602ZM268.806 105.546C268.806 108.7 267.965 111.261 266.282 113.228C264.6 115.182 262.274 116.159 259.306 116.159C256.448 116.159 254.172 115.17 252.478 113.19C250.795 111.211 249.954 108.669 249.954 105.564C249.954 102.398 250.801 99.8372 252.496 97.8828C254.191 95.9284 256.516 94.9512 259.473 94.9512C262.38 94.9512 264.662 95.9346 266.319 97.9014C267.977 99.8558 268.806 102.404 268.806 105.546Z" fill="#090909"/>
<path d="M246.012 89.459C244.725 89.459 243.841 89.8301 243.358 90.5723C242.888 91.3145 242.653 92.6009 242.653 94.4316V95.3779H247.552V97.6787H242.653V115.732H239.555V97.6787H236.252L236.512 95.6377L239.555 95.3779V94.4688C239.579 91.8464 240.068 89.9476 241.021 88.7725C241.985 87.585 243.538 86.9912 245.678 86.9912C246.507 86.9912 247.521 87.084 248.721 87.2695L248.517 89.7002C247.416 89.5394 246.581 89.459 246.012 89.459Z" fill="#090909"/>
<path d="M231.214 116.104C229.21 116.104 227.787 115.615 226.946 114.638C226.105 113.66 225.66 112.083 225.61 109.906V97.6787H222.586L222.716 95.6377L225.592 95.3779L226.649 90.7207L228.69 90.6465V95.3779H234.35V97.6787H228.69V109.35C228.69 110.896 228.925 111.984 229.396 112.615C229.866 113.246 230.67 113.562 231.808 113.562C232.216 113.562 233.1 113.463 234.461 113.265L234.591 115.714C233.119 115.974 231.993 116.104 231.214 116.104Z" fill="#090909"/>
<path d="M209.849 113.654C211.321 113.654 212.613 113.252 213.727 112.448C214.852 111.632 215.576 110.537 215.897 109.164V105.731C215.836 105.731 215.458 105.762 214.766 105.824C214.085 105.886 213.64 105.923 213.43 105.936C210.745 106.171 208.871 106.61 207.808 107.253C206.756 107.896 206.23 108.929 206.23 110.352C206.23 111.44 206.552 112.263 207.195 112.819C207.839 113.376 208.723 113.654 209.849 113.654ZM216.584 115.732C216.398 114.941 216.219 114.087 216.046 113.172C214.92 114.298 213.863 115.077 212.873 115.51C211.883 115.943 210.721 116.159 209.385 116.159C207.48 116.159 205.946 115.664 204.783 114.675C203.633 113.673 203.058 112.238 203.058 110.37C203.058 108.292 203.843 106.752 205.414 105.75C206.997 104.748 209.273 104.123 212.242 103.876C212.65 103.839 213.263 103.789 214.079 103.728C214.908 103.653 215.526 103.598 215.935 103.561V101.761C215.935 100.326 215.601 99.262 214.933 98.5693C214.265 97.8766 213.213 97.5303 211.778 97.5303C209.774 97.5303 207.752 98.0251 205.711 99.0146C205.649 98.8662 205.488 98.4395 205.229 97.7344C204.969 97.0169 204.833 96.6458 204.82 96.6211C205.723 96.1139 206.793 95.7119 208.03 95.415C209.28 95.1058 210.548 94.9512 211.834 94.9512C214.37 94.9512 216.194 95.5078 217.308 96.6211C218.433 97.722 218.996 99.6022 218.996 102.262V115.732H216.584Z" fill="#090909"/>
<path d="M198.484 116.104C196.505 116.104 195.101 115.572 194.272 114.508C193.456 113.444 193.048 111.595 193.048 108.96V87.4736L196.128 87.2881V107.735C196.128 108.576 196.134 109.251 196.146 109.758C196.171 110.265 196.221 110.766 196.295 111.261C196.369 111.743 196.468 112.108 196.592 112.355C196.715 112.603 196.895 112.832 197.13 113.042C197.365 113.24 197.643 113.376 197.965 113.45C198.299 113.512 198.707 113.543 199.189 113.543C199.585 113.543 200.365 113.469 201.527 113.32L201.694 115.788C200.42 115.998 199.35 116.104 198.484 116.104Z" fill="#090909"/>
<path d="M170.328 124.564V95.3779H173.056L173.353 98.1426C175.134 96.015 177.274 94.9512 179.772 94.9512C181.628 94.9512 183.199 95.415 184.485 96.3428C185.772 97.2705 186.718 98.526 187.324 100.109C187.943 101.693 188.252 103.542 188.252 105.657C188.252 107.686 187.918 109.492 187.25 111.075C186.582 112.646 185.599 113.889 184.3 114.805C183.013 115.708 181.504 116.159 179.772 116.159C178.461 116.159 177.23 115.868 176.08 115.287C174.93 114.693 174.008 113.914 173.315 112.949C173.39 114.285 173.427 115.584 173.427 116.846V124.36L170.328 124.564ZM179.346 113.543C180.286 113.543 181.127 113.333 181.869 112.912C182.611 112.479 183.211 111.892 183.669 111.149C184.127 110.407 184.473 109.566 184.708 108.626C184.943 107.674 185.061 106.647 185.061 105.546C185.061 103.22 184.572 101.315 183.595 99.8311C182.618 98.3343 181.189 97.5859 179.309 97.5859C175.375 97.5859 173.408 100.128 173.408 105.212C173.408 107.97 173.866 110.049 174.781 111.446C175.709 112.844 177.23 113.543 179.346 113.543Z" fill="#090909"/>
<path d="M138.508 95.3779H141.792L148.212 112.318L153.927 95.3779H157.211C151.719 110.494 148.88 118.287 148.694 118.757C147.841 120.897 146.808 122.462 145.596 123.451C144.383 124.453 142.788 124.954 140.809 124.954C140.215 124.954 139.59 124.905 138.935 124.806L138.749 122.171C139.442 122.22 139.961 122.245 140.308 122.245C141.705 122.245 142.763 121.985 143.48 121.466C144.21 120.959 144.86 120 145.429 118.59C145.936 117.291 146.313 116.289 146.561 115.584L138.508 95.3779Z" fill="#090909"/>
<path d="M134.046 116.104C132.042 116.104 130.619 115.615 129.778 114.638C128.937 113.66 128.492 112.083 128.442 109.906V97.6787H125.418L125.548 95.6377L128.424 95.3779L129.481 90.7207L131.522 90.6465V95.3779H137.182V97.6787H131.522V109.35C131.522 110.896 131.757 111.984 132.228 112.615C132.698 113.246 133.502 113.562 134.64 113.562C135.048 113.562 135.932 113.463 137.293 113.265L137.423 115.714C135.951 115.974 134.825 116.104 134.046 116.104Z" fill="#090909"/>
<path d="M121.327 95.3779V115.732H118.21V95.3779H121.327ZM121.327 87.9746V91.6484H118.21V87.9746H121.327Z" fill="#090909"/>
<path d="M112.188 116.104C110.209 116.104 108.805 115.572 107.977 114.508C107.16 113.444 106.752 111.595 106.752 108.96V87.4736L109.832 87.2881V107.735C109.832 108.576 109.838 109.251 109.851 109.758C109.875 110.265 109.925 110.766 109.999 111.261C110.073 111.743 110.172 112.108 110.296 112.355C110.42 112.603 110.599 112.832 110.834 113.042C111.069 113.24 111.347 113.376 111.669 113.45C112.003 113.512 112.411 113.543 112.894 113.543C113.289 113.543 114.069 113.469 115.231 113.32L115.398 115.788C114.124 115.998 113.054 116.104 112.188 116.104Z" fill="#090909"/>
<path d="M100.49 95.3779V115.732H97.373V95.3779H100.49ZM100.49 87.9746V91.6484H97.373V87.9746H100.49Z" fill="#090909"/>
<path d="M83.1514 97.5303C81.1846 97.5303 79.6755 98.2106 78.624 99.5713C77.585 100.92 77.0654 102.905 77.0654 105.527C77.0654 110.896 79.0879 113.58 83.1328 113.58C84.1348 113.58 85.013 113.376 85.7676 112.968C86.5345 112.547 87.1344 111.966 87.5674 111.224C88.0127 110.469 88.3405 109.622 88.5508 108.682C88.7734 107.742 88.8848 106.696 88.8848 105.546C88.8848 103.987 88.6992 102.627 88.3281 101.464C87.9694 100.301 87.3509 99.3548 86.4727 98.625C85.5944 97.8952 84.4873 97.5303 83.1514 97.5303ZM83.4668 94.9512C85.2728 94.9512 86.8314 95.4089 88.1426 96.3242C89.4538 97.2396 90.4372 98.4827 91.0928 100.054C91.7484 101.625 92.0762 103.424 92.0762 105.453C92.0762 107.556 91.7484 109.405 91.0928 111.001C90.4495 112.597 89.4661 113.858 88.1426 114.786C86.8314 115.701 85.2604 116.159 83.4297 116.159C82.0814 116.159 80.8506 115.868 79.7373 115.287C78.624 114.706 77.6963 113.914 76.9541 112.912L76.6387 115.732H73.9854V87.4736L77.084 87.2881V94.0234C77.084 95.681 77.0592 97.1035 77.0098 98.291C77.7272 97.2643 78.6549 96.4541 79.793 95.8604C80.9434 95.2542 82.168 94.9512 83.4668 94.9512Z" fill="#090909"/>
<path d="M53.4736 105.602C53.4736 108.014 54.0055 109.95 55.0693 111.409C56.1455 112.856 57.7103 113.58 59.7637 113.58C61.7923 113.58 63.32 112.856 64.3467 111.409C65.3857 109.962 65.9053 108.014 65.9053 105.564C65.9053 103.078 65.3919 101.124 64.3652 99.7012C63.3509 98.2663 61.7985 97.5488 59.708 97.5488C57.6794 97.5488 56.1331 98.2786 55.0693 99.7383C54.0055 101.198 53.4736 103.152 53.4736 105.602ZM69.1152 105.546C69.1152 108.7 68.2741 111.261 66.5918 113.228C64.9095 115.182 62.584 116.159 59.6152 116.159C56.7578 116.159 54.4818 115.17 52.7871 113.19C51.1048 111.211 50.2637 108.669 50.2637 105.564C50.2637 102.398 51.111 99.8372 52.8057 97.8828C54.5003 95.9284 56.8258 94.9512 59.7822 94.9512C62.6891 94.9512 64.9714 95.9346 66.6289 97.9014C68.2865 99.8558 69.1152 102.404 69.1152 105.546Z" fill="#090909"/>
<path d="M43.7607 115.732V105.138C43.7607 104.148 43.736 103.319 43.6865 102.651C43.6494 101.983 43.5505 101.303 43.3896 100.61C43.2412 99.9176 43.0247 99.3734 42.7402 98.9775C42.4681 98.5693 42.0846 98.2415 41.5898 97.9941C41.0951 97.7344 40.5013 97.6045 39.8086 97.6045C38.4479 97.6045 37.2852 97.9694 36.3203 98.6992C35.3678 99.429 34.6875 100.456 34.2793 101.779C34.168 102.67 34.1123 103.622 34.1123 104.637V115.732H31.0137V104.804C31.0137 103.888 30.9827 103.097 30.9209 102.429C30.859 101.748 30.7415 101.093 30.5684 100.462C30.3952 99.8187 30.1602 99.2992 29.8633 98.9033C29.5788 98.5075 29.1953 98.1921 28.7129 97.957C28.2305 97.722 27.6553 97.6045 26.9873 97.6045C25.5029 97.6045 24.2536 97.9818 23.2393 98.7363C22.2373 99.4909 21.5632 100.493 21.2168 101.742C21.1055 102.695 21.0498 103.728 21.0498 104.841V115.732H17.9512C17.9264 103.004 17.9141 96.2191 17.9141 95.3779H20.5117L20.9014 98.291C21.5199 97.3509 22.3981 96.5592 23.5361 95.916C24.6742 95.2728 25.9668 94.9512 27.4141 94.9512C28.1686 94.9512 28.8613 95.0316 29.4922 95.1924C30.1354 95.3408 30.6673 95.5326 31.0879 95.7676C31.5208 96.0026 31.9043 96.2871 32.2383 96.6211C32.5723 96.9427 32.832 97.2643 33.0176 97.5859C33.2031 97.8952 33.3577 98.223 33.4814 98.5693C34.9658 96.1572 37.2357 94.9512 40.291 94.9512C42.5547 94.9512 44.2122 95.6006 45.2637 96.8994C46.3275 98.1859 46.8594 100.097 46.8594 102.633V115.732H43.7607Z" fill="#090909"/>
<path fill-rule="evenodd" clip-rule="evenodd" d="M203.015 58.9913C193.307 58.9913 185.637 56.3819 180.006 51.163C174.404 45.9181 171.603 38.69 171.603 29.4788C171.603 20.2153 174.419 12.9872 180.05 7.79449C185.681 2.60174 193.351 0.00537109 203.059 0.00537109H234.427V29.5179C234.427 38.677 231.611 45.8789 225.98 51.1239C220.348 56.3688 212.694 58.9913 203.015 58.9913ZM203.059 50.341C196.812 50.341 192.09 48.5275 188.893 44.9004C185.696 41.2733 184.097 36.1719 184.097 29.5962C184.097 22.9422 185.696 17.7755 188.893 14.0962C192.119 10.3909 196.856 8.53817 203.103 8.53817C209.321 8.53817 214.013 10.3778 217.181 14.0571C220.378 17.7364 221.976 22.9161 221.976 29.5962C221.976 36.198 220.378 41.3125 217.181 44.9396C214.013 48.5405 209.306 50.341 203.059 50.341Z" fill="#090909"/>
<path d="M139.072 58.1691V35.428L116.767 0.827148H129.701L145.055 25.6427L160.497 0.827148H173.256L162.147 18.0297L151.038 35.428V58.1691H139.072Z" fill="#090909"/>
<path d="M72.972 44.9004C76.1689 48.5275 80.891 50.341 87.1381 50.341C93.3853 50.341 98.0927 48.5405 101.26 44.9396C104.457 41.3125 106.056 36.198 106.056 29.5962C106.056 22.9161 104.457 17.7364 101.26 14.0571C98.0927 10.3778 93.4 8.53817 87.1821 8.53817C80.935 8.53817 76.1983 10.3909 72.972 14.0962C69.7751 17.7755 68.1767 22.9422 68.1767 29.5962C68.1767 36.1719 69.7751 41.2733 72.972 44.9004ZM87.0941 58.9913C77.3861 58.9913 69.7165 56.3819 64.0852 51.163C58.4833 45.9181 55.6823 38.69 55.6823 29.4788C55.6823 20.2153 58.498 12.9872 64.1292 7.79449C69.7605 2.60174 77.4301 0.00537109 87.1381 0.00537109C96.8462 0.00537109 104.501 2.61479 110.103 7.83363C115.705 13.0264 118.506 20.2545 118.506 29.5179C118.506 38.677 115.69 45.8789 110.059 51.1239C104.428 56.3688 96.7728 58.9913 87.0941 58.9913Z" fill="#090909"/>
<path d="M23.2816 58.1693V35.4282L0.976562 0.827332H13.9108L29.2648 25.6429L44.7067 0.827332H57.465L35.248 35.4282V58.1693H23.2816Z" fill="#090909"/>
</svg>
