<svg width="235" height="60" viewBox="0 0 235 60" fill="none" xmlns="http://www.w3.org/2000/svg">
<path fill-rule="evenodd" clip-rule="evenodd" d="M202.779 59.6519C193.071 59.6519 185.402 57.0425 179.771 51.8237C174.169 46.5787 171.368 39.3506 171.368 30.1394C171.368 20.876 174.183 13.6479 179.815 8.45513C185.446 3.26239 193.115 0.666016 202.823 0.666016H234.191V30.1785C234.191 39.3376 231.376 46.5396 225.744 51.7845C220.113 57.0294 212.458 59.6519 202.779 59.6519ZM202.823 51.0017C196.576 51.0017 191.854 49.1881 188.657 45.5611C185.46 41.934 183.862 36.8326 183.862 30.2568C183.862 23.6028 185.46 18.4362 188.657 14.7569C191.884 11.0515 196.62 9.19881 202.867 9.19881C209.085 9.19881 213.778 11.0385 216.946 14.7177C220.142 18.397 221.741 23.5767 221.741 30.2568C221.741 36.8586 220.142 41.9731 216.946 45.6002C213.778 49.2012 209.071 51.0017 202.823 51.0017Z" fill="url(#paint0_linear_2106_502)"/>
<path d="M138.837 58.8298V36.0887L116.532 1.48779H129.466L144.82 26.3034L160.262 1.48779H173.02L161.912 18.6904L150.803 36.0887V58.8298H138.837Z" fill="#090909"/>
<path d="M72.7367 45.5611C75.9336 49.1881 80.6556 51.0017 86.9028 51.0017C93.1499 51.0017 97.8573 49.2012 101.025 45.6002C104.222 41.9731 105.82 36.8586 105.82 30.2568C105.82 23.5767 104.222 18.397 101.025 14.7177C97.8573 11.0385 93.1646 9.19881 86.9468 9.19881C80.6996 9.19881 75.9629 11.0515 72.7367 14.7569C69.5398 18.4362 67.9413 23.6028 67.9413 30.2568C67.9413 36.8326 69.5398 41.934 72.7367 45.5611ZM86.8588 59.6519C77.1508 59.6519 69.4811 57.0425 63.8499 51.8237C58.248 46.5787 55.447 39.3506 55.447 30.1394C55.447 20.876 58.2626 13.6479 63.8939 8.45513C69.5251 3.26239 77.1947 0.666016 86.9028 0.666016C96.6108 0.666016 104.266 3.27543 109.868 8.49427C115.47 13.687 118.271 20.9151 118.271 30.1785C118.271 39.3376 115.455 46.5396 109.824 51.7845C104.192 57.0294 96.5375 59.6519 86.8588 59.6519Z" fill="#090909"/>
<path d="M23.0462 58.8299V36.0889L0.741211 1.48798H13.6755L29.0294 26.3035L44.4714 1.48798H57.2296L35.0126 36.0889V58.8299H23.0462Z" fill="#090909"/>
<defs>
<linearGradient id="paint0_linear_2106_502" x1="172.969" y1="59.6519" x2="233.153" y2="4.28883" gradientUnits="userSpaceOnUse">
<stop stop-color="#AB100D"/>
<stop offset="1" stop-color="#EE0B0B"/>
</linearGradient>
</defs>
</svg>
