<svg width="615" height="59" viewBox="0 0 615 59" fill="none" xmlns="http://www.w3.org/2000/svg">
<path d="M611.164 42.8423V32.2476C611.164 31.258 611.139 30.4292 611.09 29.7612C611.053 29.0933 610.954 28.4129 610.793 27.7202C610.645 27.0275 610.428 26.4832 610.144 26.0874C609.871 25.6792 609.488 25.3514 608.993 25.104C608.498 24.8442 607.905 24.7144 607.212 24.7144C605.851 24.7144 604.688 25.0793 603.724 25.8091C602.771 26.5389 602.091 27.5656 601.683 28.8892C601.571 29.7798 601.516 30.7323 601.516 31.7466V42.8423H598.417V31.9136C598.417 30.9982 598.386 30.2065 598.324 29.5386C598.262 28.8582 598.145 28.2026 597.972 27.5718C597.799 26.9285 597.563 26.409 597.267 26.0132C596.982 25.6174 596.599 25.3019 596.116 25.0669C595.634 24.8319 595.059 24.7144 594.391 24.7144C592.906 24.7144 591.657 25.0916 590.643 25.8462C589.641 26.6007 588.966 27.6027 588.62 28.8521C588.509 29.8045 588.453 30.8374 588.453 31.9507V42.8423H585.354C585.33 30.1138 585.317 23.3289 585.317 22.4878H587.915L588.305 25.4009C588.923 24.4608 589.801 23.6691 590.939 23.0259C592.077 22.3826 593.37 22.061 594.817 22.061C595.572 22.061 596.265 22.1414 596.896 22.3022C597.539 22.4507 598.071 22.6424 598.491 22.8774C598.924 23.1125 599.308 23.397 599.642 23.731C599.976 24.0526 600.235 24.3742 600.421 24.6958C600.606 25.005 600.761 25.3328 600.885 25.6792C602.369 23.2671 604.639 22.061 607.694 22.061C609.958 22.061 611.616 22.7104 612.667 24.0093C613.731 25.2957 614.263 27.2069 614.263 29.7427V42.8423H611.164Z" fill="#090909"/>
<path d="M580.225 22.3022C580.781 22.3022 581.288 22.3394 581.746 22.4136L581.635 25.271C581.066 25.172 580.571 25.1226 580.15 25.1226C578.419 25.1226 577.008 25.7287 575.92 26.9409C574.844 28.1408 574.306 29.6313 574.306 31.4126V42.8423H571.207C571.195 30.3488 571.188 23.564 571.188 22.4878H573.768L574.064 26.1431C574.77 24.9927 575.666 24.0649 576.755 23.3599C577.843 22.6548 579 22.3022 580.225 22.3022Z" fill="#090909"/>
<path d="M550.677 32.7114C550.677 35.1235 551.209 37.0594 552.272 38.519C553.349 39.9663 554.913 40.6899 556.967 40.6899C558.995 40.6899 560.523 39.9663 561.55 38.519C562.589 37.0718 563.108 35.1235 563.108 32.6743C563.108 30.188 562.595 28.2336 561.568 26.811C560.554 25.3761 559.002 24.6587 556.911 24.6587C554.882 24.6587 553.336 25.3885 552.272 26.8481C551.209 28.3078 550.677 30.2622 550.677 32.7114ZM566.318 32.6558C566.318 35.8101 565.477 38.3706 563.795 40.3374C562.113 42.2918 559.787 43.269 556.818 43.269C553.961 43.269 551.685 42.2795 549.99 40.3003C548.308 38.3211 547.467 35.7791 547.467 32.6743C547.467 29.5076 548.314 26.9471 550.009 24.9927C551.703 23.0382 554.029 22.061 556.985 22.061C559.892 22.061 562.174 23.0444 563.832 25.0112C565.49 26.9657 566.318 29.5138 566.318 32.6558Z" fill="#090909"/>
<path d="M543.524 16.5688C542.238 16.5688 541.354 16.9399 540.871 17.6821C540.401 18.4243 540.166 19.7108 540.166 21.5415V22.4878H545.064V24.7886H540.166V42.8423H537.067V24.7886H533.765L534.024 22.7476L537.067 22.4878V21.5786C537.092 18.9562 537.581 17.0575 538.533 15.8823C539.498 14.6948 541.05 14.1011 543.19 14.1011C544.019 14.1011 545.034 14.1938 546.233 14.3794L546.029 16.8101C544.928 16.6493 544.093 16.5688 543.524 16.5688Z" fill="#090909"/>
<path d="M528.727 43.2134C526.723 43.2134 525.3 42.7248 524.459 41.7476C523.618 40.7703 523.173 39.1932 523.123 37.0161V24.7886H520.099L520.229 22.7476L523.104 22.4878L524.162 17.8306L526.203 17.7563V22.4878H531.862V24.7886H526.203V36.4595C526.203 38.0057 526.438 39.0942 526.908 39.7251C527.378 40.356 528.182 40.6714 529.32 40.6714C529.729 40.6714 530.613 40.5724 531.974 40.3745L532.104 42.8237C530.632 43.0835 529.506 43.2134 528.727 43.2134Z" fill="#090909"/>
<path d="M507.361 40.7642C508.833 40.7642 510.126 40.3621 511.239 39.5581C512.365 38.7417 513.089 37.647 513.41 36.2739V32.8413C513.348 32.8413 512.971 32.8722 512.278 32.9341C511.598 32.9959 511.153 33.033 510.942 33.0454C508.258 33.2804 506.384 33.7196 505.32 34.3628C504.269 35.006 503.743 36.0389 503.743 37.4614C503.743 38.55 504.065 39.3726 504.708 39.9292C505.351 40.4858 506.236 40.7642 507.361 40.7642ZM514.097 42.8423C513.911 42.0506 513.732 41.1971 513.559 40.2817C512.433 41.4074 511.375 42.1867 510.386 42.6196C509.396 43.0526 508.233 43.269 506.897 43.269C504.993 43.269 503.459 42.7743 502.296 41.7847C501.146 40.7827 500.57 39.3478 500.57 37.48C500.57 35.4019 501.356 33.8618 502.927 32.8599C504.51 31.8579 506.786 31.2332 509.755 30.9858C510.163 30.9487 510.775 30.8993 511.592 30.8374C512.421 30.7632 513.039 30.7075 513.447 30.6704V28.8706C513.447 27.4357 513.113 26.3719 512.445 25.6792C511.777 24.9865 510.726 24.6401 509.291 24.6401C507.287 24.6401 505.265 25.1349 503.224 26.1245C503.162 25.9761 503.001 25.5493 502.741 24.8442C502.481 24.1268 502.345 23.7557 502.333 23.731C503.236 23.2238 504.306 22.8218 505.543 22.5249C506.792 22.2157 508.06 22.061 509.347 22.061C511.882 22.061 513.707 22.6177 514.82 23.731C515.946 24.8319 516.509 26.7121 516.509 29.3716V42.8423H514.097Z" fill="#090909"/>
<path d="M495.997 43.2134C494.018 43.2134 492.614 42.6815 491.785 41.6177C490.969 40.5539 490.561 38.7046 490.561 36.0698V14.5835L493.641 14.3979V34.8452C493.641 35.6864 493.647 36.3605 493.659 36.8677C493.684 37.3748 493.733 37.8758 493.808 38.3706C493.882 38.853 493.981 39.2179 494.104 39.4653C494.228 39.7127 494.408 39.9416 494.643 40.1519C494.878 40.3498 495.156 40.4858 495.478 40.5601C495.812 40.6219 496.22 40.6528 496.702 40.6528C497.098 40.6528 497.877 40.5786 499.04 40.4302L499.207 42.8979C497.933 43.1082 496.863 43.2134 495.997 43.2134Z" fill="#090909"/>
<path d="M467.841 51.6743V22.4878H470.568L470.865 25.2524C472.646 23.1248 474.786 22.061 477.285 22.061C479.141 22.061 480.712 22.5249 481.998 23.4526C483.285 24.3804 484.231 25.6359 484.837 27.2192C485.455 28.8026 485.765 30.6519 485.765 32.7671C485.765 34.7957 485.431 36.6017 484.763 38.1851C484.095 39.756 483.111 40.9992 481.812 41.9146C480.526 42.8175 479.017 43.269 477.285 43.269C475.974 43.269 474.743 42.9784 473.593 42.397C472.442 41.8032 471.521 41.0239 470.828 40.0591C470.902 41.395 470.939 42.6938 470.939 43.9556V51.4702L467.841 51.6743ZM476.858 40.6528C477.799 40.6528 478.64 40.4425 479.382 40.022C480.124 39.589 480.724 39.0015 481.182 38.2593C481.639 37.5171 481.986 36.6759 482.221 35.7358C482.456 34.7834 482.573 33.7567 482.573 32.6558C482.573 30.3302 482.085 28.4253 481.107 26.9409C480.13 25.4442 478.701 24.6958 476.821 24.6958C472.888 24.6958 470.921 27.2378 470.921 32.3218C470.921 35.0802 471.379 37.1584 472.294 38.5562C473.222 39.9539 474.743 40.6528 476.858 40.6528Z" fill="#090909"/>
<path d="M436.021 22.4878H439.305L445.725 39.4282L451.439 22.4878H454.724C449.231 37.6037 446.393 45.3966 446.207 45.8667C445.354 48.0067 444.321 49.5715 443.108 50.561C441.896 51.563 440.3 52.064 438.321 52.064C437.728 52.064 437.103 52.0145 436.447 51.9155L436.262 49.2808C436.954 49.3302 437.474 49.355 437.82 49.355C439.218 49.355 440.276 49.0952 440.993 48.5757C441.723 48.0685 442.372 47.1099 442.941 45.6997C443.449 44.4009 443.826 43.3989 444.073 42.6938L436.021 22.4878Z" fill="#090909"/>
<path d="M431.559 43.2134C429.555 43.2134 428.132 42.7248 427.291 41.7476C426.45 40.7703 426.005 39.1932 425.955 37.0161V24.7886H422.931L423.061 22.7476L425.937 22.4878L426.994 17.8306L429.035 17.7563V22.4878H434.694V24.7886H429.035V36.4595C429.035 38.0057 429.27 39.0942 429.74 39.7251C430.21 40.356 431.014 40.6714 432.152 40.6714C432.561 40.6714 433.445 40.5724 434.806 40.3745L434.936 42.8237C433.464 43.0835 432.338 43.2134 431.559 43.2134Z" fill="#090909"/>
<path d="M418.84 22.4878V42.8423H415.723V22.4878H418.84ZM418.84 15.0845V18.7583H415.723V15.0845H418.84Z" fill="#090909"/>
<path d="M409.701 43.2134C407.722 43.2134 406.318 42.6815 405.489 41.6177C404.673 40.5539 404.265 38.7046 404.265 36.0698V14.5835L407.345 14.3979V34.8452C407.345 35.6864 407.351 36.3605 407.363 36.8677C407.388 37.3748 407.438 37.8758 407.512 38.3706C407.586 38.853 407.685 39.2179 407.809 39.4653C407.932 39.7127 408.112 39.9416 408.347 40.1519C408.582 40.3498 408.86 40.4858 409.182 40.5601C409.516 40.6219 409.924 40.6528 410.406 40.6528C410.802 40.6528 411.581 40.5786 412.744 40.4302L412.911 42.8979C411.637 43.1082 410.567 43.2134 409.701 43.2134Z" fill="#090909"/>
<path d="M398.003 22.4878V42.8423H394.886V22.4878H398.003ZM398.003 15.0845V18.7583H394.886V15.0845H398.003Z" fill="#090909"/>
<path d="M380.664 24.6401C378.697 24.6401 377.188 25.3205 376.137 26.6812C375.098 28.0295 374.578 30.0148 374.578 32.6372C374.578 38.0057 376.601 40.6899 380.646 40.6899C381.647 40.6899 382.526 40.4858 383.28 40.0776C384.047 39.6571 384.647 39.0757 385.08 38.3335C385.525 37.5789 385.853 36.7316 386.063 35.7915C386.286 34.8514 386.397 33.8062 386.397 32.6558C386.397 31.0972 386.212 29.7365 385.841 28.5737C385.482 27.411 384.864 26.4647 383.985 25.7349C383.107 25.005 382 24.6401 380.664 24.6401ZM380.979 22.061C382.785 22.061 384.344 22.5187 385.655 23.4341C386.966 24.3494 387.95 25.5926 388.605 27.1636C389.261 28.7345 389.589 30.5343 389.589 32.563C389.589 34.6659 389.261 36.5151 388.605 38.1108C387.962 39.7065 386.979 40.9683 385.655 41.896C384.344 42.8114 382.773 43.269 380.942 43.269C379.594 43.269 378.363 42.9784 377.25 42.397C376.137 41.8156 375.209 41.0239 374.467 40.022L374.151 42.8423H371.498V14.5835L374.597 14.3979V21.1333C374.597 22.7909 374.572 24.2134 374.522 25.4009C375.24 24.3742 376.168 23.564 377.306 22.9702C378.456 22.3641 379.681 22.061 380.979 22.061Z" fill="#090909"/>
<path d="M350.986 32.7114C350.986 35.1235 351.518 37.0594 352.582 38.519C353.658 39.9663 355.223 40.6899 357.276 40.6899C359.305 40.6899 360.833 39.9663 361.859 38.519C362.898 37.0718 363.418 35.1235 363.418 32.6743C363.418 30.188 362.905 28.2336 361.878 26.811C360.864 25.3761 359.311 24.6587 357.221 24.6587C355.192 24.6587 353.646 25.3885 352.582 26.8481C351.518 28.3078 350.986 30.2622 350.986 32.7114ZM366.628 32.6558C366.628 35.8101 365.787 38.3706 364.104 40.3374C362.422 42.2918 360.097 43.269 357.128 43.269C354.271 43.269 351.994 42.2795 350.3 40.3003C348.618 38.3211 347.776 35.7791 347.776 32.6743C347.776 29.5076 348.624 26.9471 350.318 24.9927C352.013 23.0382 354.339 22.061 357.295 22.061C360.202 22.061 362.484 23.0444 364.142 25.0112C365.799 26.9657 366.628 29.5138 366.628 32.6558Z" fill="#090909"/>
<path d="M341.273 42.8423V32.2476C341.273 31.258 341.249 30.4292 341.199 29.7612C341.162 29.0933 341.063 28.4129 340.902 27.7202C340.754 27.0275 340.537 26.4832 340.253 26.0874C339.981 25.6792 339.597 25.3514 339.103 25.104C338.608 24.8442 338.014 24.7144 337.321 24.7144C335.961 24.7144 334.798 25.0793 333.833 25.8091C332.881 26.5389 332.2 27.5656 331.792 28.8892C331.681 29.7798 331.625 30.7323 331.625 31.7466V42.8423H328.526V31.9136C328.526 30.9982 328.495 30.2065 328.434 29.5386C328.372 28.8582 328.254 28.2026 328.081 27.5718C327.908 26.9285 327.673 26.409 327.376 26.0132C327.091 25.6174 326.708 25.3019 326.226 25.0669C325.743 24.8319 325.168 24.7144 324.5 24.7144C323.016 24.7144 321.766 25.0916 320.752 25.8462C319.75 26.6007 319.076 27.6027 318.729 28.8521C318.618 29.8045 318.562 30.8374 318.562 31.9507V42.8423H315.464C315.439 30.1138 315.427 23.3289 315.427 22.4878H318.024L318.414 25.4009C319.033 24.4608 319.911 23.6691 321.049 23.0259C322.187 22.3826 323.479 22.061 324.927 22.061C325.681 22.061 326.374 22.1414 327.005 22.3022C327.648 22.4507 328.18 22.6424 328.601 22.8774C329.034 23.1125 329.417 23.397 329.751 23.731C330.085 24.0526 330.345 24.3742 330.53 24.6958C330.716 25.005 330.87 25.3328 330.994 25.6792C332.479 23.2671 334.748 22.061 337.804 22.061C340.067 22.061 341.725 22.7104 342.776 24.0093C343.84 25.2957 344.372 27.2069 344.372 29.7427V42.8423H341.273Z" fill="#090909"/>
<path fill-rule="evenodd" clip-rule="evenodd" d="M274.427 58.1841V0.0205078H277.427V58.1841H274.427Z" fill="#090909"/>
<path fill-rule="evenodd" clip-rule="evenodd" d="M203.015 59.0064C193.307 59.0064 185.637 56.397 180.006 51.1782C174.404 45.9332 171.603 38.7051 171.603 29.4939C171.603 20.2305 174.419 13.0024 180.05 7.80962C185.681 2.61688 193.351 0.0205078 203.059 0.0205078H234.427V29.533C234.427 38.6921 231.611 45.8941 225.98 51.139C220.348 56.3839 212.694 59.0064 203.015 59.0064ZM203.059 50.3562C196.812 50.3562 192.09 48.5426 188.893 44.9156C185.696 41.2885 184.097 36.187 184.097 29.6113C184.097 22.9573 185.696 17.7906 188.893 14.1114C192.119 10.406 196.856 8.5533 203.103 8.5533C209.321 8.5533 214.013 10.3929 217.181 14.0722C220.378 17.7515 221.976 22.9312 221.976 29.6113C221.976 36.2131 220.378 41.3276 217.181 44.9547C214.013 48.5557 209.306 50.3562 203.059 50.3562Z" fill="url(#paint0_linear_2106_311)"/>
<path d="M139.072 58.1843V35.4432L116.767 0.842285H129.701L145.055 25.6579L160.497 0.842285H173.256L162.147 18.0449L151.038 35.4432V58.1843H139.072Z" fill="#090909"/>
<path d="M72.972 44.9156C76.1689 48.5426 80.891 50.3562 87.1381 50.3562C93.3853 50.3562 98.0927 48.5557 101.26 44.9547C104.457 41.3276 106.056 36.2131 106.056 29.6113C106.056 22.9312 104.457 17.7515 101.26 14.0722C98.0927 10.3929 93.4 8.5533 87.1821 8.5533C80.935 8.5533 76.1983 10.406 72.972 14.1114C69.7751 17.7906 68.1767 22.9573 68.1767 29.6113C68.1767 36.187 69.7751 41.2885 72.972 44.9156ZM87.0941 59.0064C77.3861 59.0064 69.7165 56.397 64.0852 51.1782C58.4833 45.9332 55.6823 38.7051 55.6823 29.4939C55.6823 20.2305 58.498 13.0024 64.1292 7.80962C69.7605 2.61688 77.4301 0.0205078 87.1381 0.0205078C96.8462 0.0205078 104.501 2.62993 110.103 7.84876C115.705 13.0415 118.506 20.2696 118.506 29.533C118.506 38.6921 115.69 45.8941 110.059 51.139C104.428 56.3839 96.7728 59.0064 87.0941 59.0064Z" fill="#090909"/>
<path d="M23.2816 58.1844V35.4434L0.976562 0.842468H13.9108L29.2648 25.658L44.7067 0.842468H57.465L35.248 35.4434V58.1844H23.2816Z" fill="#090909"/>
<defs>
<linearGradient id="paint0_linear_2106_311" x1="173.204" y1="59.0064" x2="233.389" y2="3.64332" gradientUnits="userSpaceOnUse">
<stop stop-color="#AB100D"/>
<stop offset="1" stop-color="#EE0B0B"/>
</linearGradient>
</defs>
</svg>
