<svg width="317" height="125" viewBox="0 0 317 125" fill="none" xmlns="http://www.w3.org/2000/svg">
<path d="M313.651 115.748V105.153C313.651 104.163 313.627 103.334 313.577 102.667C313.54 101.999 313.441 101.318 313.28 100.625C313.132 99.9328 312.915 99.3885 312.631 98.9927C312.359 98.5845 311.975 98.2567 311.48 98.0093C310.986 97.7495 310.392 97.6196 309.699 97.6196C308.339 97.6196 307.176 97.9845 306.211 98.7144C305.258 99.4442 304.578 100.471 304.17 101.794C304.059 102.685 304.003 103.638 304.003 104.652V115.748H300.904V104.819C300.904 103.903 300.873 103.112 300.812 102.444C300.75 101.764 300.632 101.108 300.459 100.477C300.286 99.8338 300.051 99.3143 299.754 98.9185C299.469 98.5226 299.086 98.2072 298.604 97.9722C298.121 97.7371 297.546 97.6196 296.878 97.6196C295.394 97.6196 294.144 97.9969 293.13 98.7515C292.128 99.506 291.454 100.508 291.107 101.757C290.996 102.71 290.94 103.743 290.94 104.856V115.748H287.842C287.817 103.019 287.805 96.2342 287.805 95.3931H290.402L290.792 98.3062C291.41 97.366 292.289 96.5744 293.427 95.9312C294.565 95.2879 295.857 94.9663 297.305 94.9663C298.059 94.9663 298.752 95.0467 299.383 95.2075C300.026 95.356 300.558 95.5477 300.979 95.7827C301.411 96.0177 301.795 96.3022 302.129 96.6362C302.463 96.9578 302.723 97.2795 302.908 97.6011C303.094 97.9103 303.248 98.2381 303.372 98.5845C304.856 96.1724 307.126 94.9663 310.182 94.9663C312.445 94.9663 314.103 95.6157 315.154 96.9146C316.218 98.201 316.75 100.112 316.75 102.648V115.748H313.651Z" fill="#090909"/>
<path d="M282.712 95.2075C283.269 95.2075 283.776 95.2446 284.233 95.3188L284.122 98.1763C283.553 98.0773 283.058 98.0278 282.638 98.0278C280.906 98.0278 279.496 98.634 278.407 99.8462C277.331 101.046 276.793 102.537 276.793 104.318V115.748H273.694C273.682 103.254 273.676 96.4692 273.676 95.3931H276.255L276.552 99.0483C277.257 97.8979 278.154 96.9702 279.242 96.2651C280.331 95.5601 281.487 95.2075 282.712 95.2075Z" fill="#090909"/>
<path d="M253.164 105.617C253.164 108.029 253.696 109.965 254.76 111.424C255.836 112.872 257.401 113.595 259.454 113.595C261.483 113.595 263.01 112.872 264.037 111.424C265.076 109.977 265.596 108.029 265.596 105.58C265.596 103.093 265.082 101.139 264.056 99.7163C263.041 98.2814 261.489 97.564 259.398 97.564C257.37 97.564 255.824 98.2938 254.76 99.7534C253.696 101.213 253.164 103.167 253.164 105.617ZM268.806 105.561C268.806 108.715 267.965 111.276 266.282 113.243C264.6 115.197 262.274 116.174 259.306 116.174C256.448 116.174 254.172 115.185 252.478 113.206C250.795 111.226 249.954 108.684 249.954 105.58C249.954 102.413 250.801 99.8524 252.496 97.8979C254.191 95.9435 256.516 94.9663 259.473 94.9663C262.38 94.9663 264.662 95.9497 266.319 97.9165C267.977 99.8709 268.806 102.419 268.806 105.561Z" fill="#090909"/>
<path d="M246.012 89.4741C244.725 89.4741 243.841 89.8452 243.358 90.5874C242.888 91.3296 242.653 92.616 242.653 94.4468V95.3931H247.552V97.6938H242.653V115.748H239.555V97.6938H236.252L236.512 95.6528L239.555 95.3931V94.4839C239.579 91.8615 240.068 89.9627 241.021 88.7876C241.985 87.6001 243.538 87.0063 245.678 87.0063C246.507 87.0063 247.521 87.0991 248.721 87.2847L248.517 89.7153C247.416 89.5545 246.581 89.4741 246.012 89.4741Z" fill="#090909"/>
<path d="M231.214 116.119C229.21 116.119 227.787 115.63 226.946 114.653C226.105 113.676 225.66 112.098 225.61 109.921V97.6938H222.586L222.716 95.6528L225.592 95.3931L226.649 90.7358L228.69 90.6616V95.3931H234.35V97.6938H228.69V109.365C228.69 110.911 228.925 112 229.396 112.63C229.866 113.261 230.67 113.577 231.808 113.577C232.216 113.577 233.1 113.478 234.461 113.28L234.591 115.729C233.119 115.989 231.993 116.119 231.214 116.119Z" fill="#090909"/>
<path d="M209.849 113.669C211.321 113.669 212.613 113.267 213.727 112.463C214.852 111.647 215.576 110.552 215.897 109.179V105.747C215.836 105.747 215.458 105.778 214.766 105.839C214.085 105.901 213.64 105.938 213.43 105.951C210.745 106.186 208.871 106.625 207.808 107.268C206.756 107.911 206.23 108.944 206.23 110.367C206.23 111.455 206.552 112.278 207.195 112.834C207.839 113.391 208.723 113.669 209.849 113.669ZM216.584 115.748C216.398 114.956 216.219 114.102 216.046 113.187C214.92 114.313 213.863 115.092 212.873 115.525C211.883 115.958 210.721 116.174 209.385 116.174C207.48 116.174 205.946 115.68 204.783 114.69C203.633 113.688 203.058 112.253 203.058 110.385C203.058 108.307 203.843 106.767 205.414 105.765C206.997 104.763 209.273 104.139 212.242 103.891C212.65 103.854 213.263 103.805 214.079 103.743C214.908 103.668 215.526 103.613 215.935 103.576V101.776C215.935 100.341 215.601 99.2772 214.933 98.5845C214.265 97.8918 213.213 97.5454 211.778 97.5454C209.774 97.5454 207.752 98.0402 205.711 99.0298C205.649 98.8813 205.488 98.4546 205.229 97.7495C204.969 97.0321 204.833 96.661 204.82 96.6362C205.723 96.1291 206.793 95.7271 208.03 95.4302C209.28 95.1209 210.548 94.9663 211.834 94.9663C214.37 94.9663 216.194 95.5229 217.308 96.6362C218.433 97.7371 218.996 99.6174 218.996 102.277V115.748H216.584Z" fill="#090909"/>
<path d="M198.484 116.119C196.505 116.119 195.101 115.587 194.272 114.523C193.456 113.459 193.048 111.61 193.048 108.975V87.4888L196.128 87.3032V107.75C196.128 108.592 196.134 109.266 196.146 109.773C196.171 110.28 196.221 110.781 196.295 111.276C196.369 111.758 196.468 112.123 196.592 112.371C196.715 112.618 196.895 112.847 197.13 113.057C197.365 113.255 197.643 113.391 197.965 113.465C198.299 113.527 198.707 113.558 199.189 113.558C199.585 113.558 200.365 113.484 201.527 113.335L201.694 115.803C200.42 116.014 199.35 116.119 198.484 116.119Z" fill="#090909"/>
<path d="M170.328 124.58V95.3931H173.056L173.353 98.1577C175.134 96.0301 177.274 94.9663 179.772 94.9663C181.628 94.9663 183.199 95.4302 184.485 96.3579C185.772 97.2856 186.718 98.5412 187.324 100.125C187.943 101.708 188.252 103.557 188.252 105.672C188.252 107.701 187.918 109.507 187.25 111.09C186.582 112.661 185.599 113.904 184.3 114.82C183.013 115.723 181.504 116.174 179.772 116.174C178.461 116.174 177.23 115.884 176.08 115.302C174.93 114.708 174.008 113.929 173.315 112.964C173.39 114.3 173.427 115.599 173.427 116.861V124.375L170.328 124.58ZM179.346 113.558C180.286 113.558 181.127 113.348 181.869 112.927C182.611 112.494 183.211 111.907 183.669 111.165C184.127 110.422 184.473 109.581 184.708 108.641C184.943 107.689 185.061 106.662 185.061 105.561C185.061 103.236 184.572 101.331 183.595 99.8462C182.618 98.3494 181.189 97.6011 179.309 97.6011C175.375 97.6011 173.408 100.143 173.408 105.227C173.408 107.986 173.866 110.064 174.781 111.461C175.709 112.859 177.23 113.558 179.346 113.558Z" fill="#090909"/>
<path d="M138.508 95.3931H141.792L148.212 112.333L153.927 95.3931H157.211C151.719 110.509 148.88 118.302 148.694 118.772C147.841 120.912 146.808 122.477 145.596 123.466C144.383 124.468 142.788 124.969 140.809 124.969C140.215 124.969 139.59 124.92 138.935 124.821L138.749 122.186C139.442 122.236 139.961 122.26 140.308 122.26C141.705 122.26 142.763 122 143.48 121.481C144.21 120.974 144.86 120.015 145.429 118.605C145.936 117.306 146.313 116.304 146.561 115.599L138.508 95.3931Z" fill="#090909"/>
<path d="M134.046 116.119C132.042 116.119 130.619 115.63 129.778 114.653C128.937 113.676 128.492 112.098 128.442 109.921V97.6938H125.418L125.548 95.6528L128.424 95.3931L129.481 90.7358L131.522 90.6616V95.3931H137.182V97.6938H131.522V109.365C131.522 110.911 131.757 112 132.228 112.63C132.698 113.261 133.502 113.577 134.64 113.577C135.048 113.577 135.932 113.478 137.293 113.28L137.423 115.729C135.951 115.989 134.825 116.119 134.046 116.119Z" fill="#090909"/>
<path d="M121.327 95.3931V115.748H118.21V95.3931H121.327ZM121.327 87.9897V91.6636H118.21V87.9897H121.327Z" fill="#090909"/>
<path d="M112.188 116.119C110.209 116.119 108.805 115.587 107.977 114.523C107.16 113.459 106.752 111.61 106.752 108.975V87.4888L109.832 87.3032V107.75C109.832 108.592 109.838 109.266 109.851 109.773C109.875 110.28 109.925 110.781 109.999 111.276C110.073 111.758 110.172 112.123 110.296 112.371C110.42 112.618 110.599 112.847 110.834 113.057C111.069 113.255 111.347 113.391 111.669 113.465C112.003 113.527 112.411 113.558 112.894 113.558C113.289 113.558 114.069 113.484 115.231 113.335L115.398 115.803C114.124 116.014 113.054 116.119 112.188 116.119Z" fill="#090909"/>
<path d="M100.49 95.3931V115.748H97.373V95.3931H100.49ZM100.49 87.9897V91.6636H97.373V87.9897H100.49Z" fill="#090909"/>
<path d="M83.1514 97.5454C81.1846 97.5454 79.6755 98.2257 78.624 99.5864C77.585 100.935 77.0654 102.92 77.0654 105.542C77.0654 110.911 79.0879 113.595 83.1328 113.595C84.1348 113.595 85.013 113.391 85.7676 112.983C86.5345 112.562 87.1344 111.981 87.5674 111.239C88.0127 110.484 88.3405 109.637 88.5508 108.697C88.7734 107.757 88.8848 106.711 88.8848 105.561C88.8848 104.002 88.6992 102.642 88.3281 101.479C87.9694 100.316 87.3509 99.37 86.4727 98.6401C85.5944 97.9103 84.4873 97.5454 83.1514 97.5454ZM83.4668 94.9663C85.2728 94.9663 86.8314 95.424 88.1426 96.3394C89.4538 97.2547 90.4372 98.4979 91.0928 100.069C91.7484 101.64 92.0762 103.44 92.0762 105.468C92.0762 107.571 91.7484 109.42 91.0928 111.016C90.4495 112.612 89.4661 113.874 88.1426 114.801C86.8314 115.717 85.2604 116.174 83.4297 116.174C82.0814 116.174 80.8506 115.884 79.7373 115.302C78.624 114.721 77.6963 113.929 76.9541 112.927L76.6387 115.748H73.9854V87.4888L77.084 87.3032V94.0386C77.084 95.6961 77.0592 97.1187 77.0098 98.3062C77.7272 97.2795 78.6549 96.4692 79.793 95.8755C80.9434 95.2694 82.168 94.9663 83.4668 94.9663Z" fill="#090909"/>
<path d="M53.4736 105.617C53.4736 108.029 54.0055 109.965 55.0693 111.424C56.1455 112.872 57.7103 113.595 59.7637 113.595C61.7923 113.595 63.32 112.872 64.3467 111.424C65.3857 109.977 65.9053 108.029 65.9053 105.58C65.9053 103.093 65.3919 101.139 64.3652 99.7163C63.3509 98.2814 61.7985 97.564 59.708 97.564C57.6794 97.564 56.1331 98.2938 55.0693 99.7534C54.0055 101.213 53.4736 103.167 53.4736 105.617ZM69.1152 105.561C69.1152 108.715 68.2741 111.276 66.5918 113.243C64.9095 115.197 62.584 116.174 59.6152 116.174C56.7578 116.174 54.4818 115.185 52.7871 113.206C51.1048 111.226 50.2637 108.684 50.2637 105.58C50.2637 102.413 51.111 99.8524 52.8057 97.8979C54.5003 95.9435 56.8258 94.9663 59.7822 94.9663C62.6891 94.9663 64.9714 95.9497 66.6289 97.9165C68.2865 99.8709 69.1152 102.419 69.1152 105.561Z" fill="#090909"/>
<path d="M43.7607 115.748V105.153C43.7607 104.163 43.736 103.334 43.6865 102.667C43.6494 101.999 43.5505 101.318 43.3896 100.625C43.2412 99.9328 43.0247 99.3885 42.7402 98.9927C42.4681 98.5845 42.0846 98.2567 41.5898 98.0093C41.0951 97.7495 40.5013 97.6196 39.8086 97.6196C38.4479 97.6196 37.2852 97.9845 36.3203 98.7144C35.3678 99.4442 34.6875 100.471 34.2793 101.794C34.168 102.685 34.1123 103.638 34.1123 104.652V115.748H31.0137V104.819C31.0137 103.903 30.9827 103.112 30.9209 102.444C30.859 101.764 30.7415 101.108 30.5684 100.477C30.3952 99.8338 30.1602 99.3143 29.8633 98.9185C29.5788 98.5226 29.1953 98.2072 28.7129 97.9722C28.2305 97.7371 27.6553 97.6196 26.9873 97.6196C25.5029 97.6196 24.2536 97.9969 23.2393 98.7515C22.2373 99.506 21.5632 100.508 21.2168 101.757C21.1055 102.71 21.0498 103.743 21.0498 104.856V115.748H17.9512C17.9264 103.019 17.9141 96.2342 17.9141 95.3931H20.5117L20.9014 98.3062C21.5199 97.366 22.3981 96.5744 23.5361 95.9312C24.6742 95.2879 25.9668 94.9663 27.4141 94.9663C28.1686 94.9663 28.8613 95.0467 29.4922 95.2075C30.1354 95.356 30.6673 95.5477 31.0879 95.7827C31.5208 96.0177 31.9043 96.3022 32.2383 96.6362C32.5723 96.9578 32.832 97.2795 33.0176 97.6011C33.2031 97.9103 33.3577 98.2381 33.4814 98.5845C34.9658 96.1724 37.2357 94.9663 40.291 94.9663C42.5547 94.9663 44.2122 95.6157 45.2637 96.9146C46.3275 98.201 46.8594 100.112 46.8594 102.648V115.748H43.7607Z" fill="#090909"/>
<path fill-rule="evenodd" clip-rule="evenodd" d="M203.015 59.0064C193.307 59.0064 185.637 56.397 180.006 51.1782C174.404 45.9332 171.603 38.7051 171.603 29.4939C171.603 20.2305 174.419 13.0024 180.05 7.80962C185.681 2.61688 193.351 0.0205078 203.059 0.0205078H234.427V29.533C234.427 38.6921 231.611 45.8941 225.98 51.139C220.348 56.3839 212.694 59.0064 203.015 59.0064ZM203.059 50.3562C196.812 50.3562 192.09 48.5426 188.893 44.9156C185.696 41.2885 184.097 36.187 184.097 29.6113C184.097 22.9573 185.696 17.7906 188.893 14.1114C192.119 10.406 196.856 8.5533 203.103 8.5533C209.321 8.5533 214.013 10.3929 217.181 14.0722C220.378 17.7515 221.976 22.9312 221.976 29.6113C221.976 36.2131 220.378 41.3276 217.181 44.9547C214.013 48.5557 209.306 50.3562 203.059 50.3562Z" fill="url(#paint0_linear_2106_331)"/>
<path d="M139.072 58.1843V35.4432L116.767 0.842285H129.701L145.055 25.6579L160.497 0.842285H173.256L162.147 18.0449L151.038 35.4432V58.1843H139.072Z" fill="#090909"/>
<path d="M72.972 44.9156C76.1689 48.5426 80.891 50.3562 87.1381 50.3562C93.3853 50.3562 98.0927 48.5557 101.26 44.9547C104.457 41.3276 106.056 36.2131 106.056 29.6113C106.056 22.9312 104.457 17.7515 101.26 14.0722C98.0927 10.3929 93.4 8.5533 87.1821 8.5533C80.935 8.5533 76.1983 10.406 72.972 14.1114C69.7751 17.7906 68.1767 22.9573 68.1767 29.6113C68.1767 36.187 69.7751 41.2885 72.972 44.9156ZM87.0941 59.0064C77.3861 59.0064 69.7165 56.397 64.0852 51.1782C58.4833 45.9332 55.6823 38.7051 55.6823 29.4939C55.6823 20.2305 58.498 13.0024 64.1292 7.80962C69.7605 2.61688 77.4301 0.0205078 87.1381 0.0205078C96.8462 0.0205078 104.501 2.62993 110.103 7.84876C115.705 13.0415 118.506 20.2696 118.506 29.533C118.506 38.6921 115.69 45.8941 110.059 51.139C104.428 56.3839 96.7728 59.0064 87.0941 59.0064Z" fill="#090909"/>
<path d="M23.2816 58.1844V35.4434L0.976562 0.842468H13.9108L29.2648 25.658L44.7067 0.842468H57.465L35.248 35.4434V58.1844H23.2816Z" fill="#090909"/>
<defs>
<linearGradient id="paint0_linear_2106_331" x1="173.204" y1="59.0064" x2="233.389" y2="3.64332" gradientUnits="userSpaceOnUse">
<stop stop-color="#AB100D"/>
<stop offset="1" stop-color="#EE0B0B"/>
</linearGradient>
</defs>
</svg>
