<svg width="317" height="126" viewBox="0 0 317 126" fill="none" xmlns="http://www.w3.org/2000/svg">
<path d="M313.651 116.338V105.744C313.651 104.754 313.627 103.925 313.577 103.257C313.54 102.589 313.441 101.909 313.28 101.216C313.132 100.524 312.915 99.9793 312.631 99.5835C312.359 99.1753 311.975 98.8475 311.48 98.6001C310.986 98.3403 310.392 98.2104 309.699 98.2104C308.339 98.2104 307.176 98.5754 306.211 99.3052C305.258 100.035 304.578 101.062 304.17 102.385C304.059 103.276 304.003 104.228 304.003 105.243V116.338H300.904V105.41C300.904 104.494 300.873 103.703 300.812 103.035C300.75 102.354 300.632 101.699 300.459 101.068C300.286 100.425 300.051 99.9051 299.754 99.5093C299.469 99.1134 299.086 98.798 298.604 98.563C298.121 98.328 297.546 98.2104 296.878 98.2104C295.394 98.2104 294.144 98.5877 293.13 99.3423C292.128 100.097 291.454 101.099 291.107 102.348C290.996 103.301 290.94 104.333 290.94 105.447V116.338H287.842C287.817 103.61 287.805 96.825 287.805 95.9839H290.402L290.792 98.897C291.41 97.9569 292.289 97.1652 293.427 96.522C294.565 95.8787 295.857 95.5571 297.305 95.5571C298.059 95.5571 298.752 95.6375 299.383 95.7983C300.026 95.9468 300.558 96.1385 300.979 96.3735C301.411 96.6086 301.795 96.8931 302.129 97.2271C302.463 97.5487 302.723 97.8703 302.908 98.1919C303.094 98.5011 303.248 98.8289 303.372 99.1753C304.856 96.7632 307.126 95.5571 310.182 95.5571C312.445 95.5571 314.103 96.2065 315.154 97.5054C316.218 98.7918 316.75 100.703 316.75 103.239V116.338H313.651Z" fill="#B40F0D"/>
<path d="M282.712 95.7983C283.269 95.7983 283.776 95.8354 284.233 95.9097L284.122 98.7671C283.553 98.6681 283.058 98.6187 282.638 98.6187C280.906 98.6187 279.496 99.2248 278.407 100.437C277.331 101.637 276.793 103.127 276.793 104.909V116.338H273.694C273.682 103.845 273.676 97.0601 273.676 95.9839H276.255L276.552 99.6392C277.257 98.4888 278.154 97.561 279.242 96.856C280.331 96.1509 281.487 95.7983 282.712 95.7983Z" fill="#B40F0D"/>
<path d="M253.164 106.208C253.164 108.62 253.696 110.556 254.76 112.015C255.836 113.462 257.401 114.186 259.454 114.186C261.483 114.186 263.01 113.462 264.037 112.015C265.076 110.568 265.596 108.62 265.596 106.17C265.596 103.684 265.082 101.73 264.056 100.307C263.041 98.8722 261.489 98.1548 259.398 98.1548C257.37 98.1548 255.824 98.8846 254.76 100.344C253.696 101.804 253.164 103.758 253.164 106.208ZM268.806 106.152C268.806 109.306 267.965 111.867 266.282 113.833C264.6 115.788 262.274 116.765 259.306 116.765C256.448 116.765 254.172 115.776 252.478 113.796C250.795 111.817 249.954 109.275 249.954 106.17C249.954 103.004 250.801 100.443 252.496 98.4888C254.191 96.5343 256.516 95.5571 259.473 95.5571C262.38 95.5571 264.662 96.5405 266.319 98.5073C267.977 100.462 268.806 103.01 268.806 106.152Z" fill="#B40F0D"/>
<path d="M246.012 90.0649C244.725 90.0649 243.841 90.436 243.358 91.1782C242.888 91.9204 242.653 93.2069 242.653 95.0376V95.9839H247.552V98.2847H242.653V116.338H239.555V98.2847H236.252L236.512 96.2437L239.555 95.9839V95.0747C239.579 92.4523 240.068 90.5535 241.021 89.3784C241.985 88.1909 243.538 87.5972 245.678 87.5972C246.507 87.5972 247.521 87.6899 248.721 87.8755L248.517 90.3062C247.416 90.1453 246.581 90.0649 246.012 90.0649Z" fill="#B40F0D"/>
<path d="M231.214 116.709C229.21 116.709 227.787 116.221 226.946 115.244C226.105 114.266 225.66 112.689 225.61 110.512V98.2847H222.586L222.716 96.2437L225.592 95.9839L226.649 91.3267L228.69 91.2524V95.9839H234.35V98.2847H228.69V109.956C228.69 111.502 228.925 112.59 229.396 113.221C229.866 113.852 230.67 114.167 231.808 114.167C232.216 114.167 233.1 114.069 234.461 113.871L234.591 116.32C233.119 116.58 231.993 116.709 231.214 116.709Z" fill="#B40F0D"/>
<path d="M209.849 114.26C211.321 114.26 212.613 113.858 213.727 113.054C214.852 112.238 215.576 111.143 215.897 109.77V106.337C215.836 106.337 215.458 106.368 214.766 106.43C214.085 106.492 213.64 106.529 213.43 106.542C210.745 106.777 208.871 107.216 207.808 107.859C206.756 108.502 206.23 109.535 206.23 110.958C206.23 112.046 206.552 112.869 207.195 113.425C207.839 113.982 208.723 114.26 209.849 114.26ZM216.584 116.338C216.398 115.547 216.219 114.693 216.046 113.778C214.92 114.903 213.863 115.683 212.873 116.116C211.883 116.549 210.721 116.765 209.385 116.765C207.48 116.765 205.946 116.27 204.783 115.281C203.633 114.279 203.058 112.844 203.058 110.976C203.058 108.898 203.843 107.358 205.414 106.356C206.997 105.354 209.273 104.729 212.242 104.482C212.65 104.445 213.263 104.395 214.079 104.333C214.908 104.259 215.526 104.204 215.935 104.167V102.367C215.935 100.932 215.601 99.868 214.933 99.1753C214.265 98.4826 213.213 98.1362 211.778 98.1362C209.774 98.1362 207.752 98.631 205.711 99.6206C205.649 99.4722 205.488 99.0454 205.229 98.3403C204.969 97.6229 204.833 97.2518 204.82 97.2271C205.723 96.7199 206.793 96.3179 208.03 96.021C209.28 95.7118 210.548 95.5571 211.834 95.5571C214.37 95.5571 216.194 96.1138 217.308 97.2271C218.433 98.328 218.996 100.208 218.996 102.868V116.338H216.584Z" fill="#B40F0D"/>
<path d="M198.484 116.709C196.505 116.709 195.101 116.178 194.272 115.114C193.456 114.05 193.048 112.201 193.048 109.566V88.0796L196.128 87.894V108.341C196.128 109.182 196.134 109.857 196.146 110.364C196.171 110.871 196.221 111.372 196.295 111.867C196.369 112.349 196.468 112.714 196.592 112.961C196.715 113.209 196.895 113.438 197.13 113.648C197.365 113.846 197.643 113.982 197.965 114.056C198.299 114.118 198.707 114.149 199.189 114.149C199.585 114.149 200.365 114.075 201.527 113.926L201.694 116.394C200.42 116.604 199.35 116.709 198.484 116.709Z" fill="#B40F0D"/>
<path d="M170.328 125.17V95.9839H173.056L173.353 98.7485C175.134 96.6209 177.274 95.5571 179.772 95.5571C181.628 95.5571 183.199 96.021 184.485 96.9487C185.772 97.8765 186.718 99.132 187.324 100.715C187.943 102.299 188.252 104.148 188.252 106.263C188.252 108.292 187.918 110.098 187.25 111.681C186.582 113.252 185.599 114.495 184.3 115.411C183.013 116.314 181.504 116.765 179.772 116.765C178.461 116.765 177.23 116.474 176.08 115.893C174.93 115.299 174.008 114.52 173.315 113.555C173.39 114.891 173.427 116.19 173.427 117.452V124.966L170.328 125.17ZM179.346 114.149C180.286 114.149 181.127 113.939 181.869 113.518C182.611 113.085 183.211 112.498 183.669 111.755C184.127 111.013 184.473 110.172 184.708 109.232C184.943 108.279 185.061 107.253 185.061 106.152C185.061 103.826 184.572 101.921 183.595 100.437C182.618 98.9403 181.189 98.1919 179.309 98.1919C175.375 98.1919 173.408 100.734 173.408 105.818C173.408 108.576 173.866 110.654 174.781 112.052C175.709 113.45 177.23 114.149 179.346 114.149Z" fill="#B40F0D"/>
<path d="M138.508 95.9839H141.792L148.212 112.924L153.927 95.9839H157.211C151.719 111.1 148.88 118.893 148.694 119.363C147.841 121.503 146.808 123.068 145.596 124.057C144.383 125.059 142.788 125.56 140.809 125.56C140.215 125.56 139.59 125.511 138.935 125.412L138.749 122.777C139.442 122.826 139.961 122.851 140.308 122.851C141.705 122.851 142.763 122.591 143.48 122.072C144.21 121.565 144.86 120.606 145.429 119.196C145.936 117.897 146.313 116.895 146.561 116.19L138.508 95.9839Z" fill="#B40F0D"/>
<path d="M134.046 116.709C132.042 116.709 130.619 116.221 129.778 115.244C128.937 114.266 128.492 112.689 128.442 110.512V98.2847H125.418L125.548 96.2437L128.424 95.9839L129.481 91.3267L131.522 91.2524V95.9839H137.182V98.2847H131.522V109.956C131.522 111.502 131.757 112.59 132.228 113.221C132.698 113.852 133.502 114.167 134.64 114.167C135.048 114.167 135.932 114.069 137.293 113.871L137.423 116.32C135.951 116.58 134.825 116.709 134.046 116.709Z" fill="#B40F0D"/>
<path d="M121.327 95.9839V116.338H118.21V95.9839H121.327ZM121.327 88.5806V92.2544H118.21V88.5806H121.327Z" fill="#B40F0D"/>
<path d="M112.188 116.709C110.209 116.709 108.805 116.178 107.977 115.114C107.16 114.05 106.752 112.201 106.752 109.566V88.0796L109.832 87.894V108.341C109.832 109.182 109.838 109.857 109.851 110.364C109.875 110.871 109.925 111.372 109.999 111.867C110.073 112.349 110.172 112.714 110.296 112.961C110.42 113.209 110.599 113.438 110.834 113.648C111.069 113.846 111.347 113.982 111.669 114.056C112.003 114.118 112.411 114.149 112.894 114.149C113.289 114.149 114.069 114.075 115.231 113.926L115.398 116.394C114.124 116.604 113.054 116.709 112.188 116.709Z" fill="#B40F0D"/>
<path d="M100.49 95.9839V116.338H97.373V95.9839H100.49ZM100.49 88.5806V92.2544H97.373V88.5806H100.49Z" fill="#B40F0D"/>
<path d="M83.1514 98.1362C81.1846 98.1362 79.6755 98.8166 78.624 100.177C77.585 101.526 77.0654 103.511 77.0654 106.133C77.0654 111.502 79.0879 114.186 83.1328 114.186C84.1348 114.186 85.013 113.982 85.7676 113.574C86.5345 113.153 87.1344 112.572 87.5674 111.83C88.0127 111.075 88.3405 110.228 88.5508 109.288C88.7734 108.347 88.8848 107.302 88.8848 106.152C88.8848 104.593 88.6992 103.233 88.3281 102.07C87.9694 100.907 87.3509 99.9608 86.4727 99.231C85.5944 98.5011 84.4873 98.1362 83.1514 98.1362ZM83.4668 95.5571C85.2728 95.5571 86.8314 96.0148 88.1426 96.9302C89.4538 97.8455 90.4372 99.0887 91.0928 100.66C91.7484 102.231 92.0762 104.03 92.0762 106.059C92.0762 108.162 91.7484 110.011 91.0928 111.607C90.4495 113.203 89.4661 114.464 88.1426 115.392C86.8314 116.307 85.2604 116.765 83.4297 116.765C82.0814 116.765 80.8506 116.474 79.7373 115.893C78.624 115.312 77.6963 114.52 76.9541 113.518L76.6387 116.338H73.9854V88.0796L77.084 87.894V94.6294C77.084 96.2869 77.0592 97.7095 77.0098 98.897C77.7272 97.8703 78.6549 97.0601 79.793 96.4663C80.9434 95.8602 82.168 95.5571 83.4668 95.5571Z" fill="#B40F0D"/>
<path d="M53.4736 106.208C53.4736 108.62 54.0055 110.556 55.0693 112.015C56.1455 113.462 57.7103 114.186 59.7637 114.186C61.7923 114.186 63.32 113.462 64.3467 112.015C65.3857 110.568 65.9053 108.62 65.9053 106.17C65.9053 103.684 65.3919 101.73 64.3652 100.307C63.3509 98.8722 61.7985 98.1548 59.708 98.1548C57.6794 98.1548 56.1331 98.8846 55.0693 100.344C54.0055 101.804 53.4736 103.758 53.4736 106.208ZM69.1152 106.152C69.1152 109.306 68.2741 111.867 66.5918 113.833C64.9095 115.788 62.584 116.765 59.6152 116.765C56.7578 116.765 54.4818 115.776 52.7871 113.796C51.1048 111.817 50.2637 109.275 50.2637 106.17C50.2637 103.004 51.111 100.443 52.8057 98.4888C54.5003 96.5343 56.8258 95.5571 59.7822 95.5571C62.6891 95.5571 64.9714 96.5405 66.6289 98.5073C68.2865 100.462 69.1152 103.01 69.1152 106.152Z" fill="#B40F0D"/>
<path d="M43.7607 116.338V105.744C43.7607 104.754 43.736 103.925 43.6865 103.257C43.6494 102.589 43.5505 101.909 43.3896 101.216C43.2412 100.524 43.0247 99.9793 42.7402 99.5835C42.4681 99.1753 42.0846 98.8475 41.5898 98.6001C41.0951 98.3403 40.5013 98.2104 39.8086 98.2104C38.4479 98.2104 37.2852 98.5754 36.3203 99.3052C35.3678 100.035 34.6875 101.062 34.2793 102.385C34.168 103.276 34.1123 104.228 34.1123 105.243V116.338H31.0137V105.41C31.0137 104.494 30.9827 103.703 30.9209 103.035C30.859 102.354 30.7415 101.699 30.5684 101.068C30.3952 100.425 30.1602 99.9051 29.8633 99.5093C29.5788 99.1134 29.1953 98.798 28.7129 98.563C28.2305 98.328 27.6553 98.2104 26.9873 98.2104C25.5029 98.2104 24.2536 98.5877 23.2393 99.3423C22.2373 100.097 21.5632 101.099 21.2168 102.348C21.1055 103.301 21.0498 104.333 21.0498 105.447V116.338H17.9512C17.9264 103.61 17.9141 96.825 17.9141 95.9839H20.5117L20.9014 98.897C21.5199 97.9569 22.3981 97.1652 23.5361 96.522C24.6742 95.8787 25.9668 95.5571 27.4141 95.5571C28.1686 95.5571 28.8613 95.6375 29.4922 95.7983C30.1354 95.9468 30.6673 96.1385 31.0879 96.3735C31.5208 96.6086 31.9043 96.8931 32.2383 97.2271C32.5723 97.5487 32.832 97.8703 33.0176 98.1919C33.2031 98.5011 33.3577 98.8289 33.4814 99.1753C34.9658 96.7632 37.2357 95.5571 40.291 95.5571C42.5547 95.5571 44.2122 96.2065 45.2637 97.5054C46.3275 98.7918 46.8594 100.703 46.8594 103.239V116.338H43.7607Z" fill="#B40F0D"/>
<path fill-rule="evenodd" clip-rule="evenodd" d="M203.015 59.5972C193.307 59.5972 185.637 56.9878 180.006 51.769C174.404 46.524 171.603 39.296 171.603 30.0847C171.603 20.8213 174.419 13.5932 180.05 8.40044C185.681 3.2077 193.351 0.611328 203.059 0.611328H234.427V30.1238C234.427 39.2829 231.611 46.4849 225.98 51.7298C220.348 56.9748 212.694 59.5972 203.015 59.5972ZM203.059 50.947C196.812 50.947 192.09 49.1335 188.893 45.5064C185.696 41.8793 184.097 36.7779 184.097 30.2021C184.097 23.5481 185.696 18.3815 188.893 14.7022C192.119 10.9968 196.856 9.14412 203.103 9.14412C209.321 9.14412 214.013 10.9838 217.181 14.663C220.378 18.3423 221.976 23.522 221.976 30.2021C221.976 36.804 220.378 41.9184 217.181 45.5455C214.013 49.1465 209.306 50.947 203.059 50.947Z" fill="url(#paint0_linear_2106_288)"/>
<path d="M139.072 58.7751V36.034L116.767 1.43311H129.701L145.055 26.2487L160.497 1.43311H173.256L162.147 18.6357L151.038 36.034V58.7751H139.072Z" fill="#090909"/>
<path d="M72.972 45.5064C76.1689 49.1335 80.891 50.947 87.1381 50.947C93.3853 50.947 98.0927 49.1465 101.26 45.5455C104.457 41.9184 106.056 36.804 106.056 30.2021C106.056 23.522 104.457 18.3423 101.26 14.663C98.0927 10.9838 93.4 9.14412 87.1821 9.14412C80.935 9.14412 76.1983 10.9968 72.972 14.7022C69.7751 18.3815 68.1767 23.5481 68.1767 30.2021C68.1767 36.7779 69.7751 41.8793 72.972 45.5064ZM87.0941 59.5972C77.3861 59.5972 69.7165 56.9878 64.0852 51.769C58.4833 46.524 55.6823 39.296 55.6823 30.0847C55.6823 20.8213 58.498 13.5932 64.1292 8.40044C69.7605 3.2077 77.4301 0.611328 87.1381 0.611328C96.8462 0.611328 104.501 3.22075 110.103 8.43958C115.705 13.6323 118.506 20.8604 118.506 30.1238C118.506 39.2829 115.69 46.4849 110.059 51.7298C104.428 56.9748 96.7728 59.5972 87.0941 59.5972Z" fill="#090909"/>
<path d="M23.2816 58.7753V36.0342L0.976562 1.43329H13.9108L29.2648 26.2489L44.7067 1.43329H57.465L35.248 36.0342V58.7753H23.2816Z" fill="#090909"/>
<defs>
<linearGradient id="paint0_linear_2106_288" x1="173.204" y1="59.5973" x2="233.389" y2="4.23414" gradientUnits="userSpaceOnUse">
<stop stop-color="#AB100D"/>
<stop offset="1" stop-color="#EE0B0B"/>
</linearGradient>
</defs>
</svg>
