<svg width="615" height="60" viewBox="0 0 615 60" fill="none" xmlns="http://www.w3.org/2000/svg">
<path d="M611.164 43.4331V32.8384C611.164 31.8488 611.139 31.02 611.09 30.3521C611.053 29.6841 610.954 29.0037 610.793 28.311C610.645 27.6183 610.428 27.0741 610.144 26.6782C609.871 26.27 609.488 25.9422 608.993 25.6948C608.498 25.4351 607.905 25.3052 607.212 25.3052C605.851 25.3052 604.688 25.6701 603.724 26.3999C602.771 27.1297 602.091 28.1564 601.683 29.48C601.571 30.3706 601.516 31.3231 601.516 32.3374V43.4331H598.417V32.5044C598.417 31.589 598.386 30.7974 598.324 30.1294C598.262 29.4491 598.145 28.7935 597.972 28.1626C597.799 27.5194 597.563 26.9998 597.267 26.604C596.982 26.2082 596.599 25.8927 596.116 25.6577C595.634 25.4227 595.059 25.3052 594.391 25.3052C592.906 25.3052 591.657 25.6825 590.643 26.437C589.641 27.1916 588.966 28.1935 588.62 29.4429C588.509 30.3953 588.453 31.4282 588.453 32.5415V43.4331H585.354C585.33 30.7046 585.317 23.9198 585.317 23.0786H587.915L588.305 25.9917C588.923 25.0516 589.801 24.2599 590.939 23.6167C592.077 22.9735 593.37 22.6519 594.817 22.6519C595.572 22.6519 596.265 22.7323 596.896 22.8931C597.539 23.0415 598.071 23.2332 598.491 23.4683C598.924 23.7033 599.308 23.9878 599.642 24.3218C599.976 24.6434 600.235 24.965 600.421 25.2866C600.606 25.5959 600.761 25.9237 600.885 26.27C602.369 23.8579 604.639 22.6519 607.694 22.6519C609.958 22.6519 611.616 23.3013 612.667 24.6001C613.731 25.8866 614.263 27.7977 614.263 30.3335V43.4331H611.164Z" fill="#B40F0D"/>
<path d="M580.225 22.8931C580.781 22.8931 581.288 22.9302 581.746 23.0044L581.635 25.8618C581.066 25.7629 580.571 25.7134 580.15 25.7134C578.419 25.7134 577.008 26.3195 575.92 27.5317C574.844 28.7316 574.306 30.2222 574.306 32.0034V43.4331H571.207C571.195 30.9396 571.188 24.1548 571.188 23.0786H573.768L574.064 26.7339C574.77 25.5835 575.666 24.6558 576.755 23.9507C577.843 23.2456 579 22.8931 580.225 22.8931Z" fill="#B40F0D"/>
<path d="M550.677 33.3022C550.677 35.7144 551.209 37.6502 552.272 39.1099C553.349 40.5571 554.913 41.2808 556.967 41.2808C558.995 41.2808 560.523 40.5571 561.55 39.1099C562.589 37.6626 563.108 35.7144 563.108 33.2651C563.108 30.7788 562.595 28.8244 561.568 27.4019C560.554 25.967 559.002 25.2495 556.911 25.2495C554.882 25.2495 553.336 25.9793 552.272 27.439C551.209 28.8986 550.677 30.853 550.677 33.3022ZM566.318 33.2466C566.318 36.4009 565.477 38.9614 563.795 40.9282C562.113 42.8826 559.787 43.8599 556.818 43.8599C553.961 43.8599 551.685 42.8703 549.99 40.8911C548.308 38.9119 547.467 36.37 547.467 33.2651C547.467 30.0985 548.314 27.5379 550.009 25.5835C551.703 23.6291 554.029 22.6519 556.985 22.6519C559.892 22.6519 562.174 23.6353 563.832 25.6021C565.49 27.5565 566.318 30.1047 566.318 33.2466Z" fill="#B40F0D"/>
<path d="M543.524 17.1597C542.238 17.1597 541.354 17.5308 540.871 18.2729C540.401 19.0151 540.166 20.3016 540.166 22.1323V23.0786H545.064V25.3794H540.166V43.4331H537.067V25.3794H533.765L534.024 23.3384L537.067 23.0786V22.1694C537.092 19.547 537.581 17.6483 538.533 16.4731C539.498 15.2856 541.05 14.6919 543.19 14.6919C544.019 14.6919 545.034 14.7847 546.233 14.9702L546.029 17.4009C544.928 17.2401 544.093 17.1597 543.524 17.1597Z" fill="#B40F0D"/>
<path d="M528.727 43.8042C526.723 43.8042 525.3 43.3156 524.459 42.3384C523.618 41.3612 523.173 39.784 523.123 37.6069V25.3794H520.099L520.229 23.3384L523.104 23.0786L524.162 18.4214L526.203 18.3472V23.0786H531.862V25.3794H526.203V37.0503C526.203 38.5965 526.438 39.6851 526.908 40.3159C527.378 40.9468 528.182 41.2622 529.32 41.2622C529.729 41.2622 530.613 41.1632 531.974 40.9653L532.104 43.4146C530.632 43.6743 529.506 43.8042 528.727 43.8042Z" fill="#B40F0D"/>
<path d="M507.361 41.355C508.833 41.355 510.126 40.953 511.239 40.1489C512.365 39.3325 513.089 38.2378 513.41 36.8647V33.4321C513.348 33.4321 512.971 33.4631 512.278 33.5249C511.598 33.5868 511.153 33.6239 510.942 33.6362C508.258 33.8713 506.384 34.3104 505.32 34.9536C504.269 35.5968 503.743 36.6297 503.743 38.0522C503.743 39.1408 504.065 39.9634 504.708 40.52C505.351 41.0767 506.236 41.355 507.361 41.355ZM514.097 43.4331C513.911 42.6414 513.732 41.7879 513.559 40.8726C512.433 41.9982 511.375 42.7775 510.386 43.2104C509.396 43.6434 508.233 43.8599 506.897 43.8599C504.993 43.8599 503.459 43.3651 502.296 42.3755C501.146 41.3735 500.57 39.9386 500.57 38.0708C500.57 35.9927 501.356 34.4526 502.927 33.4507C504.51 32.4487 506.786 31.8241 509.755 31.5767C510.163 31.5396 510.775 31.4901 511.592 31.4282C512.421 31.354 513.039 31.2983 513.447 31.2612V29.4614C513.447 28.0265 513.113 26.9627 512.445 26.27C511.777 25.5773 510.726 25.231 509.291 25.231C507.287 25.231 505.265 25.7257 503.224 26.7153C503.162 26.5669 503.001 26.1401 502.741 25.4351C502.481 24.7176 502.345 24.3465 502.333 24.3218C503.236 23.8146 504.306 23.4126 505.543 23.1157C506.792 22.8065 508.06 22.6519 509.347 22.6519C511.882 22.6519 513.707 23.2085 514.82 24.3218C515.946 25.4227 516.509 27.3029 516.509 29.9624V43.4331H514.097Z" fill="#B40F0D"/>
<path d="M495.997 43.8042C494.018 43.8042 492.614 43.2723 491.785 42.2085C490.969 41.1447 490.561 39.2954 490.561 36.6606V15.1743L493.641 14.9888V35.436C493.641 36.2772 493.647 36.9513 493.659 37.4585C493.684 37.9657 493.733 38.4666 493.808 38.9614C493.882 39.4438 493.981 39.8088 494.104 40.0562C494.228 40.3035 494.408 40.5324 494.643 40.7427C494.878 40.9406 495.156 41.0767 495.478 41.1509C495.812 41.2127 496.22 41.2437 496.702 41.2437C497.098 41.2437 497.877 41.1694 499.04 41.021L499.207 43.4888C497.933 43.6991 496.863 43.8042 495.997 43.8042Z" fill="#B40F0D"/>
<path d="M467.841 52.2651V23.0786H470.568L470.865 25.8433C472.646 23.7157 474.786 22.6519 477.285 22.6519C479.141 22.6519 480.712 23.1157 481.998 24.0435C483.285 24.9712 484.231 26.2267 484.837 27.8101C485.455 29.3934 485.765 31.2427 485.765 33.3579C485.765 35.3866 485.431 37.1925 484.763 38.7759C484.095 40.3468 483.111 41.59 481.812 42.5054C480.526 43.4084 479.017 43.8599 477.285 43.8599C475.974 43.8599 474.743 43.5692 473.593 42.9878C472.442 42.394 471.521 41.6147 470.828 40.6499C470.902 41.9858 470.939 43.2847 470.939 44.5464V52.061L467.841 52.2651ZM476.858 41.2437C477.799 41.2437 478.64 41.0334 479.382 40.6128C480.124 40.1799 480.724 39.5923 481.182 38.8501C481.639 38.1079 481.986 37.2668 482.221 36.3267C482.456 35.3742 482.573 34.3475 482.573 33.2466C482.573 30.9211 482.085 29.0161 481.107 27.5317C480.13 26.035 478.701 25.2866 476.821 25.2866C472.888 25.2866 470.921 27.8286 470.921 32.9126C470.921 35.6711 471.379 37.7492 472.294 39.147C473.222 40.5448 474.743 41.2437 476.858 41.2437Z" fill="#B40F0D"/>
<path d="M436.021 23.0786H439.305L445.725 40.019L451.439 23.0786H454.724C449.231 38.1945 446.393 45.9875 446.207 46.4575C445.354 48.5975 444.321 50.1623 443.108 51.1519C441.896 52.1538 440.3 52.6548 438.321 52.6548C437.728 52.6548 437.103 52.6053 436.447 52.5063L436.262 49.8716C436.954 49.9211 437.474 49.9458 437.82 49.9458C439.218 49.9458 440.276 49.686 440.993 49.1665C441.723 48.6593 442.372 47.7007 442.941 46.2905C443.449 44.9917 443.826 43.9897 444.073 43.2847L436.021 23.0786Z" fill="#B40F0D"/>
<path d="M431.559 43.8042C429.555 43.8042 428.132 43.3156 427.291 42.3384C426.45 41.3612 426.005 39.784 425.955 37.6069V25.3794H422.931L423.061 23.3384L425.937 23.0786L426.994 18.4214L429.035 18.3472V23.0786H434.694V25.3794H429.035V37.0503C429.035 38.5965 429.27 39.6851 429.74 40.3159C430.21 40.9468 431.014 41.2622 432.152 41.2622C432.561 41.2622 433.445 41.1632 434.806 40.9653L434.936 43.4146C433.464 43.6743 432.338 43.8042 431.559 43.8042Z" fill="#B40F0D"/>
<path d="M418.84 23.0786V43.4331H415.723V23.0786H418.84ZM418.84 15.6753V19.3491H415.723V15.6753H418.84Z" fill="#B40F0D"/>
<path d="M409.701 43.8042C407.722 43.8042 406.318 43.2723 405.489 42.2085C404.673 41.1447 404.265 39.2954 404.265 36.6606V15.1743L407.345 14.9888V35.436C407.345 36.2772 407.351 36.9513 407.363 37.4585C407.388 37.9657 407.438 38.4666 407.512 38.9614C407.586 39.4438 407.685 39.8088 407.809 40.0562C407.932 40.3035 408.112 40.5324 408.347 40.7427C408.582 40.9406 408.86 41.0767 409.182 41.1509C409.516 41.2127 409.924 41.2437 410.406 41.2437C410.802 41.2437 411.581 41.1694 412.744 41.021L412.911 43.4888C411.637 43.6991 410.567 43.8042 409.701 43.8042Z" fill="#B40F0D"/>
<path d="M398.003 23.0786V43.4331H394.886V23.0786H398.003ZM398.003 15.6753V19.3491H394.886V15.6753H398.003Z" fill="#B40F0D"/>
<path d="M380.664 25.231C378.697 25.231 377.188 25.9113 376.137 27.272C375.098 28.6203 374.578 30.6056 374.578 33.228C374.578 38.5965 376.601 41.2808 380.646 41.2808C381.647 41.2808 382.526 41.0767 383.28 40.6685C384.047 40.2479 384.647 39.6665 385.08 38.9243C385.525 38.1698 385.853 37.3224 386.063 36.3823C386.286 35.4422 386.397 34.397 386.397 33.2466C386.397 31.688 386.212 30.3273 385.841 29.1646C385.482 28.0018 384.864 27.0555 383.985 26.3257C383.107 25.5959 382 25.231 380.664 25.231ZM380.979 22.6519C382.785 22.6519 384.344 23.1095 385.655 24.0249C386.966 24.9403 387.95 26.1834 388.605 27.7544C389.261 29.3254 389.589 31.1252 389.589 33.1538C389.589 35.2567 389.261 37.106 388.605 38.7017C387.962 40.2974 386.979 41.5591 385.655 42.4868C384.344 43.4022 382.773 43.8599 380.942 43.8599C379.594 43.8599 378.363 43.5692 377.25 42.9878C376.137 42.4064 375.209 41.6147 374.467 40.6128L374.151 43.4331H371.498V15.1743L374.597 14.9888V21.7241C374.597 23.3817 374.572 24.8042 374.522 25.9917C375.24 24.965 376.168 24.1548 377.306 23.561C378.456 22.9549 379.681 22.6519 380.979 22.6519Z" fill="#B40F0D"/>
<path d="M350.986 33.3022C350.986 35.7144 351.518 37.6502 352.582 39.1099C353.658 40.5571 355.223 41.2808 357.276 41.2808C359.305 41.2808 360.833 40.5571 361.859 39.1099C362.898 37.6626 363.418 35.7144 363.418 33.2651C363.418 30.7788 362.905 28.8244 361.878 27.4019C360.864 25.967 359.311 25.2495 357.221 25.2495C355.192 25.2495 353.646 25.9793 352.582 27.439C351.518 28.8986 350.986 30.853 350.986 33.3022ZM366.628 33.2466C366.628 36.4009 365.787 38.9614 364.104 40.9282C362.422 42.8826 360.097 43.8599 357.128 43.8599C354.271 43.8599 351.994 42.8703 350.3 40.8911C348.618 38.9119 347.776 36.37 347.776 33.2651C347.776 30.0985 348.624 27.5379 350.318 25.5835C352.013 23.6291 354.339 22.6519 357.295 22.6519C360.202 22.6519 362.484 23.6353 364.142 25.6021C365.799 27.5565 366.628 30.1047 366.628 33.2466Z" fill="#B40F0D"/>
<path d="M341.273 43.4331V32.8384C341.273 31.8488 341.249 31.02 341.199 30.3521C341.162 29.6841 341.063 29.0037 340.902 28.311C340.754 27.6183 340.537 27.0741 340.253 26.6782C339.981 26.27 339.597 25.9422 339.103 25.6948C338.608 25.4351 338.014 25.3052 337.321 25.3052C335.961 25.3052 334.798 25.6701 333.833 26.3999C332.881 27.1297 332.2 28.1564 331.792 29.48C331.681 30.3706 331.625 31.3231 331.625 32.3374V43.4331H328.526V32.5044C328.526 31.589 328.495 30.7974 328.434 30.1294C328.372 29.4491 328.254 28.7935 328.081 28.1626C327.908 27.5194 327.673 26.9998 327.376 26.604C327.091 26.2082 326.708 25.8927 326.226 25.6577C325.743 25.4227 325.168 25.3052 324.5 25.3052C323.016 25.3052 321.766 25.6825 320.752 26.437C319.75 27.1916 319.076 28.1935 318.729 29.4429C318.618 30.3953 318.562 31.4282 318.562 32.5415V43.4331H315.464C315.439 30.7046 315.427 23.9198 315.427 23.0786H318.024L318.414 25.9917C319.033 25.0516 319.911 24.2599 321.049 23.6167C322.187 22.9735 323.479 22.6519 324.927 22.6519C325.681 22.6519 326.374 22.7323 327.005 22.8931C327.648 23.0415 328.18 23.2332 328.601 23.4683C329.034 23.7033 329.417 23.9878 329.751 24.3218C330.085 24.6434 330.345 24.965 330.53 25.2866C330.716 25.5959 330.87 25.9237 330.994 26.27C332.479 23.8579 334.748 22.6519 337.804 22.6519C340.067 22.6519 341.725 23.3013 342.776 24.6001C343.84 25.8866 344.372 27.7977 344.372 30.3335V43.4331H341.273Z" fill="#B40F0D"/>
<path fill-rule="evenodd" clip-rule="evenodd" d="M274.427 58.7749V0.611328H277.427V58.7749H274.427Z" fill="#B40F0D"/>
<path fill-rule="evenodd" clip-rule="evenodd" d="M203.015 59.5972C193.307 59.5972 185.637 56.9878 180.006 51.769C174.404 46.524 171.603 39.296 171.603 30.0847C171.603 20.8213 174.419 13.5932 180.05 8.40044C185.681 3.2077 193.351 0.611328 203.059 0.611328H234.427V30.1238C234.427 39.2829 231.611 46.4849 225.98 51.7298C220.348 56.9748 212.694 59.5972 203.015 59.5972ZM203.059 50.947C196.812 50.947 192.09 49.1335 188.893 45.5064C185.696 41.8793 184.097 36.7779 184.097 30.2021C184.097 23.5481 185.696 18.3815 188.893 14.7022C192.119 10.9968 196.856 9.14412 203.103 9.14412C209.321 9.14412 214.013 10.9838 217.181 14.663C220.378 18.3423 221.976 23.522 221.976 30.2021C221.976 36.804 220.378 41.9184 217.181 45.5455C214.013 49.1465 209.306 50.947 203.059 50.947Z" fill="url(#paint0_linear_2106_268)"/>
<path d="M139.072 58.7751V36.034L116.767 1.43311H129.701L145.055 26.2487L160.497 1.43311H173.256L162.147 18.6357L151.038 36.034V58.7751H139.072Z" fill="#090909"/>
<path d="M72.972 45.5064C76.1689 49.1335 80.891 50.947 87.1381 50.947C93.3853 50.947 98.0927 49.1465 101.26 45.5455C104.457 41.9184 106.056 36.804 106.056 30.2021C106.056 23.522 104.457 18.3423 101.26 14.663C98.0927 10.9838 93.4 9.14412 87.1821 9.14412C80.935 9.14412 76.1983 10.9968 72.972 14.7022C69.7751 18.3815 68.1767 23.5481 68.1767 30.2021C68.1767 36.7779 69.7751 41.8793 72.972 45.5064ZM87.0941 59.5972C77.3861 59.5972 69.7165 56.9878 64.0852 51.769C58.4833 46.524 55.6823 39.296 55.6823 30.0847C55.6823 20.8213 58.498 13.5932 64.1292 8.40044C69.7605 3.2077 77.4301 0.611328 87.1381 0.611328C96.8462 0.611328 104.501 3.22075 110.103 8.43958C115.705 13.6323 118.506 20.8604 118.506 30.1238C118.506 39.2829 115.69 46.4849 110.059 51.7298C104.428 56.9748 96.7728 59.5972 87.0941 59.5972Z" fill="#090909"/>
<path d="M23.2816 58.7753V36.0342L0.976562 1.43329H13.9108L29.2648 26.2489L44.7067 1.43329H57.465L35.248 36.0342V58.7753H23.2816Z" fill="#090909"/>
<defs>
<linearGradient id="paint0_linear_2106_268" x1="173.204" y1="59.5973" x2="233.389" y2="4.23414" gradientUnits="userSpaceOnUse">
<stop stop-color="#AB100D"/>
<stop offset="1" stop-color="#EE0B0B"/>
</linearGradient>
</defs>
</svg>
